<?xml version="1.0" encoding="UTF-8"?>
<svg width="187px" height="224px" viewBox="0 0 187 224" version="1.1" xmlns="http://www.w3.org/2000/svg" xmlns:xlink="http://www.w3.org/1999/xlink">
    <!-- Generator: Sketch 49.1 (51147) - http://www.bohemiancoding.com/sketch -->
    <title>chat-icon</title>
    <desc>Created with Sketch.</desc>
    <defs>
        <linearGradient x1="50%" y1="-2.48949813e-15%" x2="50%" y2="100%" id="linearGradient-1">
            <stop stop-color="#00B791" offset="0%"></stop>
            <stop stop-color="#FD00D8" offset="100%"></stop>
        </linearGradient>
    </defs>
    <g id="White-Walls" stroke="none" stroke-width="1" fill="none" fill-rule="evenodd">
        <g id="Desktop-HD-Copy-2" transform="translate(-325.000000, -449.000000)">
            <g id="chat-icon" transform="translate(327.000000, 451.000000)">
                <g id="Logo-Copy" transform="translate(64.000000, 199.000000)" fill="#06B393" font-family="Gotham-Bold, Gotham" font-size="18" font-weight="bold" letter-spacing="-0.624929667" line-spacing="30">
                    <text id="CHAT">
                        <tspan x="0" y="17">CHAT</tspan>
                    </text>
                </g>
                <circle id="Oval-5" stroke="url(#linearGradient-1)" stroke-width="3" cx="91.5" cy="91.5" r="91.5"></circle>
                <g id="sea-snail" transform="translate(54.000000, 55.000000)" fill="#06B393" fill-rule="nonzero">
                    <path d="M75.6802694,38.5753386 C73.3659548,34.2269551 69.2715325,31.9679663 66.2442541,30.8387092 C62.9912276,29.6251296 59.3590967,29.1313762 56.3356283,29.4664514 C56.2421223,28.805635 56.1217868,28.1495648 55.9670017,27.5002974 C55.0273373,23.5584971 52.9557574,19.9902155 49.9759464,17.1811528 C45.6956233,13.1456961 40.0666857,11.1558115 34.862256,11.5979905 C34.2850268,10.8987307 32.7722607,9.22936658 30.505731,7.89950734 C27.9015317,6.37141902 25.1417537,5.78005406 22.3634014,6.12857653 C21.4586628,5.14186084 18.5042524,2.27821795 14.4077663,1.92273452 C13.5817697,1.85091009 12.762917,1.88808793 11.9529545,2.02651606 C11.4884405,1.68780221 10.4563813,1.00104049 9.14015258,0.524531328 C6.65263745,-0.376121619 4.35435699,-0.113187279 2.49344358,1.2845413 C0.298988182,2.93318074 -0.483033613,5.40416237 0.291050486,8.24217628 C0.672377395,9.63974666 1.33962011,10.8080801 1.72682091,11.4114685 C0.887171445,14.0862163 1.06084823,16.6654092 1.52869602,18.727751 C2.34532617,22.3271987 4.16909117,25.0078 4.54025783,25.5273406 C3.99081052,28.7485236 4.22957642,31.6862057 4.73933524,34.0924821 C5.85823285,39.3755322 8.41829852,43.093949 9.02172216,43.916924 C8.84820413,49.3831739 10.1007725,55.7692194 14.3542662,62.4969846 C22.9633324,76.1132498 34.5904693,81.0004746 45.3495398,81 C49.9092698,80.9998418 54.3124684,80.1200717 58.2638534,78.6565305 C59.6221519,79.0794086 60.9623525,79.2907686 62.2698498,79.2906104 C66.007552,79.2904522 69.4758488,77.5805879 72.3177027,74.2662231 C75.743771,70.2703172 78.1030129,64.0956317 78.7902586,57.3251515 C79.4998886,50.3354012 78.3954376,43.6766128 75.6802694,38.5753386 Z M2.58869593,7.61980342 C2.06528426,5.70142688 2.50296881,4.24880167 3.9268327,3.1791873 C5.11605829,2.28596992 6.5777056,2.13615114 8.27129239,2.73416065 C8.5210123,2.82228004 8.7580319,2.92131548 8.98028738,3.0239896 C8.00029945,3.520116 7.03745695,4.1750788 6.09588747,4.99346589 C4.72901624,6.18173293 3.70949858,7.42252357 2.96018009,8.67359743 C2.82111166,8.34833088 2.69061594,7.99316386 2.58869593,7.61980342 Z M70.5074318,72.7251621 C68.2023249,75.4138318 64.2688791,78.2129276 58.6226373,76.2793636 C57.1392407,75.7712137 55.8387286,75.0676824 54.7574556,74.1879123 C54.2480143,73.7732607 53.4982196,73.8490402 53.0822843,74.3565573 C52.666349,74.8642326 52.7422334,75.6115863 53.251516,76.0259214 C53.7928668,76.4663602 54.3793038,76.8666152 55.0028892,77.2300088 C50.7554281,78.4529225 44.3779658,79.4390053 37.312464,77.6096974 C28.9102541,75.4342401 21.863644,69.9241678 16.3683772,61.2324634 C9.78135965,50.8141253 10.930738,41.3002369 13.0548654,35.1540281 C15.5125348,28.042461 20.7182345,21.3165943 26.9802828,17.1621684 C27.5276663,16.798933 27.6757837,16.0624954 27.3116022,15.5171676 C26.9471032,14.9716817 26.207945,14.8240778 25.660879,15.1869968 C18.9795616,19.6198609 13.4255558,26.7953422 10.8037349,34.3813618 C10.2322208,36.0353802 9.72579578,37.9146804 9.39701642,39.9778132 C8.55689069,38.38059 7.59706451,36.1484957 7.04999851,33.5145644 C5.57501586,26.4109075 7.65834352,19.8513128 13.242195,14.0177142 C13.9888147,13.2376123 14.7471822,12.5280693 15.4961832,11.9090187 C16.0022906,11.4905703 16.0721424,10.742742 15.652397,10.238389 C15.2324929,9.73387778 14.4819044,9.66442641 13.9759556,10.0827167 C13.1561504,10.7604608 12.32936,11.5334434 11.5192388,12.3798326 C8.32510997,15.7168205 6.41593536,19.0808613 5.35688798,22.2653411 C4.80855195,21.2001564 4.19623809,19.7643008 3.83459667,18.1332219 C2.844766,13.6682425 4.13210151,9.84889178 7.66072483,6.78148268 C9.78088339,4.93841105 11.9747038,4.09866647 14.1839233,4.28455567 C16.5207809,4.48183553 18.4526574,5.78416735 19.6133072,6.78037526 C19.1570485,6.93984446 18.7017423,7.1232024 18.247706,7.33361316 C17.6515851,7.6099948 17.392975,8.31558274 17.6701593,8.90963716 C17.9473436,9.50369158 18.6555449,9.7610888 19.2516658,9.48518176 C22.6612237,7.90472806 26.018234,8.04584565 29.2295083,9.90426303 C30.4320692,10.6000424 31.397293,11.4206443 32.0754897,12.0839919 C31.3739562,12.2724123 30.6860755,12.5073446 30.0191502,12.7957498 C29.4160441,13.0566274 29.139336,13.7552544 29.4011212,14.356428 C29.6627477,14.9572852 30.3636462,15.2333504 30.9672286,14.9723145 C36.3805785,12.6313762 43.3619407,14.2113553 48.3396698,18.9043062 C50.9818112,21.3952214 52.8181178,24.5570781 53.6504646,28.0483145 C54.5996542,32.0302985 54.2491256,36.293252 52.6079276,40.718206 C47.4161983,54.7176402 46.4652623,65.1370858 49.7814729,71.6870302 C49.9908693,72.1005743 50.4099796,72.3391453 50.8452829,72.3391453 C51.0256273,72.3391453 51.2088293,72.2980124 51.3806011,72.2116333 C51.9675143,71.9164254 52.2034226,71.2029273 51.9071878,70.6178905 C50.2634498,67.3715531 49.8229076,62.8820521 50.5976268,57.27421 C51.2242285,52.7374061 52.6520612,47.4439145 54.8412777,41.5405481 C56.0722556,38.221279 56.6386896,34.9706701 56.5407384,31.8298546 C61.82518,31.2171321 70.2799374,33.4924159 73.5766212,39.6867187 C78.6399187,49.1996578 77.1768426,64.9467669 70.5074318,72.7251621 Z" id="Shape"></path>
                </g>
            </g>
        </g>
    </g>
</svg>