<?xml version="1.0" encoding="UTF-8"?>
<svg width="187px" height="224px" viewBox="0 0 187 224" version="1.1" xmlns="http://www.w3.org/2000/svg" xmlns:xlink="http://www.w3.org/1999/xlink">
    <!-- Generator: Sketch 49.1 (51147) - http://www.bohemiancoding.com/sketch -->
    <title>chess-icon</title>
    <desc>Created with Sketch.</desc>
    <defs>
        <linearGradient x1="50%" y1="-2.48949813e-15%" x2="50%" y2="100%" id="linearGradient-1">
            <stop stop-color="#00B791" offset="0%"></stop>
            <stop stop-color="#FD00D8" offset="100%"></stop>
        </linearGradient>
    </defs>
    <g id="White-Walls" stroke="none" stroke-width="1" fill="none" fill-rule="evenodd">
        <g id="Desktop-HD-Copy-2" transform="translate(-949.000000, -449.000000)">
            <g id="chess-icon" transform="translate(951.000000, 451.000000)">
                <g id="Logo-Copy-4" transform="translate(67.000000, 199.000000)" fill="#06B393" font-family="Gotham-Bold, Gotham" font-size="18" font-weight="bold" letter-spacing="-0.624929667" line-spacing="30">
                    <text id="CHESS">
                        <tspan x="0" y="17">CHESS</tspan>
                    </text>
                </g>
                <circle id="Oval-5-Copy-3" stroke="url(#linearGradient-1)" stroke-width="3" cx="91.5" cy="91.5" r="91.5"></circle>
                <g id="chess" transform="translate(52.000000, 54.000000)" fill="#06B393" fill-rule="nonzero">
                    <path d="M78.8486921,67.4703216 C78.8486921,66.0119883 77.7510165,64.7788012 76.2568719,64.3989766 L76.131843,61.7557018 C75.9957149,58.8597953 73.9348595,56.4040936 71.1231777,55.6627193 C68.8200992,49.2523392 68.6260269,43.4517544 70.5324731,37.9722222 C71.1737769,37.8337719 71.7617066,37.5396199 72.238155,37.1111111 C72.9232025,36.4976608 73.3002479,35.6827485 73.3002479,34.8163743 C73.3002479,33.370614 72.2391343,32.1428363 70.7777975,31.7247076 C71.3407541,30.6976608 71.6407583,29.5600877 71.6407583,28.402193 C71.6407583,24.2483918 67.8678554,20.8690058 63.2303595,20.8690058 C58.5928636,20.8690058 54.8199607,24.2483918 54.8199607,28.402193 C54.8199607,29.5596491 55.1194752,30.6966374 55.6822686,31.723538 C55.137593,31.8785088 54.6384566,32.1491228 54.2227273,32.5216374 C53.5376798,33.1350877 53.1606343,33.95 53.1606343,34.8163743 C53.1606343,36.3331871 54.3276798,37.6102339 55.8993554,37.9646199 C57.8105351,44.078655 57.631969,50.0238304 55.3670847,55.655848 C54.7187624,55.8252924 54.1001467,56.0897661 53.5322934,56.4365497 C52.8842975,53.8701754 50.833562,51.8128655 48.1880413,51.1425439 C47.4634938,49.1320175 46.9189814,47.1457602 46.567562,45.2290936 C46.4580393,44.6315789 45.828814,44.226462 45.1610682,44.3245614 C44.4939752,44.4226608 44.0416839,44.9866959 44.1512066,45.5843567 C44.5577955,47.8026316 45.20775,50.1045322 46.0824628,52.425731 C46.2270785,52.8095029 46.596126,53.0907895 47.0425413,53.1568713 C49.3536178,53.4994152 51.181064,55.5511696 51.2935248,57.9302632 L51.4249194,60.6855263 L27.5752438,60.6855263 L27.7064752,57.9292398 C27.8187727,55.5511696 29.6463822,53.4995614 31.9574587,53.1568713 C31.9729649,53.1545322 31.9883079,53.1519006 32.0034876,53.1491228 L38.3301798,53.1491228 C39.00625,53.1491228 39.5545165,52.6581871 39.5545165,52.0524854 C39.5545165,51.4469298 39.0064132,50.955848 38.3301798,50.955848 L33.5023657,50.955848 C35.8263368,44.6589181 35.9955992,38.0590643 34.0059091,31.2950292 L44.946593,31.2950292 C44.104688,33.9324561 43.6590888,36.6717836 43.6200785,39.4589181 C43.6115909,40.0644737 44.1528388,40.5616959 44.8289091,40.5692982 C44.8341322,40.5692982 44.8393554,40.5692982 44.8445785,40.5692982 C45.5136302,40.5692982 46.0601012,40.0874269 46.0685888,39.4864035 C46.1082521,36.6520468 46.5995537,33.8723684 47.5300888,31.2131579 C48.2485971,31.0717836 48.9091612,30.75 49.4450227,30.2716374 C50.1796901,29.6112573 50.5843202,28.7347953 50.5843202,27.8032164 C50.5843202,26.2059942 49.3807128,24.855848 47.7432583,24.4421053 L47.7432583,21.8983918 C49.3248905,21.8178363 50.5843202,20.6396199 50.5843202,19.2030702 L50.5843202,18.5175439 C50.5843202,17.0385965 49.2498079,15.8336257 47.6027231,15.8179825 C47.1075041,14.0982456 45.3610165,12.8241228 43.2885723,12.8241228 L42.5625558,12.8241228 L42.5625558,8.48011696 L43.7713864,8.48011696 C45.0399566,8.48011696 46.0720165,7.55570175 46.0720165,6.41944444 L46.0720165,4.75497076 C46.0720165,3.61871345 45.0399566,2.69429825 43.7713864,2.69429825 L42.5625558,2.69429825 L42.5625558,2.06052632 C42.5628822,0.924415205 41.5308223,0 40.2622521,0 L38.4039566,0 C37.1353864,0 36.1033264,0.924415205 36.1033264,2.06067251 L36.1033264,2.69444444 L35.2286136,2.69444444 C33.9600434,2.69444444 32.9279835,3.61885965 32.9279835,4.75511696 L32.9279835,6.41959064 C32.9279835,7.55584795 33.9600434,8.48026316 35.2286136,8.48026316 L36.1033264,8.48026316 L36.1033264,12.8245614 L35.7117541,12.8245614 C33.6391467,12.8245614 31.8928223,14.0986842 31.3976033,15.8184211 C29.7505186,15.8340643 28.4160062,17.0391813 28.4160062,18.5179825 L28.4160062,19.2035088 C28.4160062,20.6400585 29.6752727,21.8182749 31.2570682,21.8988304 L31.2570682,24.4413743 C30.621314,24.6008772 30.0376281,24.9045322 29.5553037,25.3352339 C28.8207996,25.995614 28.4160062,26.872076 28.4160062,27.8038012 C28.4160062,29.4602339 29.7105289,30.8510234 31.4410207,31.2070175 C33.6099298,38.0918129 33.4086756,44.7897661 30.842155,51.1350877 C28.2119773,51.7899123 26.1649959,53.8141813 25.4903946,56.3489766 C24.971345,56.0495614 24.4131219,55.8185673 23.8295992,55.6635965 C21.526031,49.2527778 21.3319587,43.4519006 23.2385682,37.972076 C23.8800351,37.8336257 24.4678017,37.5394737 24.94425,37.1109649 C25.6291343,36.4975146 26.0065062,35.6824561 26.0065062,34.8162281 C26.0065062,33.3704678 24.9453926,32.1426901 23.4840558,31.7245614 C24.0471756,30.6973684 24.3470165,29.5599415 24.3470165,28.402193 C24.3470165,24.2483918 20.5741136,20.8690058 15.9366178,20.8690058 C11.2991219,20.8690058 7.52621901,24.2483918 7.52621901,28.402193 C7.52621901,29.5595029 7.82573347,30.6966374 8.38852686,31.723538 C7.84385124,31.8785088 7.34471488,32.1491228 6.92898554,32.5216374 C6.24410124,33.1350877 5.86672934,33.9501462 5.86672934,34.8163743 C5.86672934,36.3331871 7.03377479,37.6102339 8.60545041,37.9646199 C10.5166302,44.0783626 10.338064,50.0230994 8.07366942,55.6548246 C5.24680785,56.3868421 3.17207851,58.8494152 3.03529752,61.7552632 L2.91206405,64.3590643 C2.26684298,64.4915205 1.67417975,64.7837719 1.19332438,65.2144737 C0.521334711,65.8187135 0.151307851,66.619883 0.151307851,67.4703216 C0.151307851,68.2710526 0.482161157,69.0038012 1.02797934,69.5649123 C0.461105372,70.1472222 0.151307851,70.8839181 0.151307851,71.6616959 C0.151307851,73.4219298 1.75007851,74.8540936 3.71544835,74.8540936 L75.2847149,74.8540936 C76.2367955,74.8540936 77.1315847,74.522076 77.8068388,73.9175439 C78.4786653,73.3133041 78.8488554,72.5121345 78.8488554,71.6616959 C78.8488554,70.8609649 78.5180021,70.1282164 77.9721839,69.5672515 C78.5390579,68.9846491 78.8486921,68.2480994 78.8486921,67.4703216 Z M35.3768202,6.28684211 L35.3768202,4.8875731 L37.3276632,4.8875731 C38.0037335,4.8875731 38.552,4.39663743 38.552,3.79093567 L38.552,2.19327485 L40.1142087,2.19327485 L40.1142087,3.79093567 C40.1142087,4.39649123 40.662312,4.8875731 41.3385455,4.8875731 L43.6236694,4.8875731 L43.6236694,6.28684211 L41.3385455,6.28684211 C40.662312,6.28684211 40.1142087,6.77777778 40.1142087,7.38347953 L40.1142087,12.8244152 L38.552,12.8244152 L38.552,7.38347953 C38.552,6.77792398 38.0038967,6.28684211 37.3276632,6.28684211 L35.3768202,6.28684211 Z M30.8645165,19.2033626 L30.8645165,18.5178363 C30.8645165,18.2385965 31.1181653,18.0114035 31.4299215,18.0114035 L32.4810785,18.0114035 C33.1571488,18.0114035 33.7054153,17.5204678 33.7054153,16.9147661 L33.7054153,16.8144737 C33.7054153,15.8236842 34.6054277,15.0176901 35.7114277,15.0176901 L43.2884091,15.0176901 C44.3945723,15.0176901 45.2944215,15.8238304 45.2944215,16.8144737 L45.2944215,16.9147661 C45.2944215,17.5203216 45.8425248,18.0114035 46.5187583,18.0114035 L47.5699153,18.0114035 C47.8816715,18.0114035 48.1353202,18.2385965 48.1353202,18.5178363 L48.1353202,19.2033626 C48.1353202,19.4826023 47.8816715,19.7097953 47.5699153,19.7097953 L46.5187583,19.7097953 C45.842688,19.7097953 45.2944215,20.200731 45.2944215,20.8064327 L45.2944215,24.1622807 L33.7055785,24.1622807 L33.7055785,20.8064327 C33.7055785,20.2008772 33.1574752,19.7097953 32.4812417,19.7097953 L31.4300847,19.7097953 C31.1184917,19.7100877 30.8645165,19.4827485 30.8645165,19.2033626 Z M32.3141012,29.1019006 C31.5147975,29.1019006 30.8645165,28.5195906 30.8645165,27.803655 C30.8645165,27.4565789 31.0154979,27.1295322 31.2864483,26.8859649 C31.5616426,26.6404971 31.9264463,26.5052632 32.3141012,26.5052632 L46.686062,26.5052632 C47.4853657,26.5052632 48.1356467,27.0875731 48.1356467,27.803655 C48.1356467,28.150731 47.9846653,28.4774854 47.7138781,28.7211988 C47.4386839,28.9666667 47.0738802,29.1019006 46.6862252,29.1019006 L32.3141012,29.1019006 Z M63.230686,23.0624269 C66.518,23.0624269 69.1924112,25.4578947 69.1924112,28.4023392 C69.1924112,29.4814327 68.8253223,30.5355263 68.1495785,31.4190058 L58.3116302,31.4190058 C57.6360496,30.5353801 57.2687975,29.4812865 57.2687975,28.4023392 C57.2689607,25.4578947 59.9433719,23.0624269 63.230686,23.0624269 Z M56.7832087,35.8692982 C56.1360289,35.8692982 55.6094711,35.397076 55.6094711,34.8163743 C55.6096343,34.5359649 55.7320517,34.2717836 55.9543616,34.0725146 C56.1758554,33.874269 56.4701467,33.7649123 56.7833719,33.7649123 L69.678,33.7649123 C70.3251798,33.7649123 70.8517376,34.2365497 70.8517376,34.8163743 C70.8517376,35.0967836 70.7293202,35.3609649 70.5052149,35.5616959 C70.2845372,35.7599415 69.9908988,35.8692982 69.6778368,35.8692982 L56.7832087,35.8692982 Z M56.4848368,57.6730994 C56.4947934,57.6716374 56.50475,57.669883 56.5145434,57.6682749 L62.1809979,57.6682749 C62.8570682,57.6682749 63.4053347,57.1773392 63.4053347,56.5716374 C63.4053347,55.9659357 62.8572314,55.475 62.1809979,55.475 L58.0241942,55.475 C60.0489773,49.895614 60.1971839,44.0516082 58.4648967,38.0624269 L67.9504463,38.0624269 C66.1313244,43.8909357 66.4879669,50.2336257 69.0158037,56.9418129 C69.1604194,57.3255848 69.5296302,57.6068713 69.9760455,57.6730994 C71.9926674,57.9719298 73.5876839,59.7668129 73.6854545,61.8480994 L73.7967727,64.2032164 L56.7046983,64.2032164 C56.4745537,62.7384503 55.3749194,61.5201754 53.8897521,60.9820175 L53.8052025,59.2055556 C54.4925351,58.3783626 55.4524504,57.8260234 56.4848368,57.6730994 Z M26.8178884,62.8792398 L52.1827645,62.8792398 C53.350626,62.8792398 54.3009112,63.7302632 54.3009112,64.776462 C54.3009112,64.9008772 54.288343,65.019152 54.260595,65.1415205 C54.1822479,65.5100877 53.9814835,65.847807 53.6800103,66.1176901 C53.2799504,66.4761696 52.7481694,66.673538 52.1827645,66.673538 L26.8178884,66.673538 C25.8085165,66.6732456 24.9347831,66.0312865 24.7400579,65.1451754 C24.7132893,65.0248538 24.699905,64.9008772 24.699905,64.7763158 C24.699905,64.2701754 24.9204194,63.7937135 25.3206426,63.4352339 C25.7208657,63.0767544 26.2524835,62.8792398 26.8178884,62.8792398 Z M15.9369442,23.0624269 C19.2242583,23.0624269 21.8986694,25.4578947 21.8986694,28.4023392 C21.8986694,29.4814327 21.5315806,30.5353801 20.8558368,31.4190058 L11.0178884,31.4190058 C10.3423079,30.5352339 9.97505579,29.4812865 9.97505579,28.4023392 C9.97521901,25.4578947 12.6496302,23.0624269 15.9369442,23.0624269 Z M9.48930372,35.8692982 C8.84212397,35.8692982 8.31556612,35.397076 8.31556612,34.8163743 C8.31556612,34.5359649 8.43798347,34.2717836 8.66045661,34.0723684 C8.88178719,33.8741228 9.17607851,33.7649123 9.48930372,33.7649123 L22.384095,33.7649123 C23.0312748,33.7649123 23.5578326,34.2365497 23.5578326,34.8163743 C23.5578326,35.0967836 23.4354153,35.3609649 23.2111467,35.5618421 C22.9906322,35.7600877 22.6969938,35.8692982 22.3839318,35.8692982 L9.48930372,35.8692982 Z M5.48184917,61.8479532 C5.57978306,59.7668129 7.17430992,57.972076 9.19125826,57.6732456 C9.20105165,57.6717836 9.21084504,57.6701754 9.22047521,57.6684211 L14.8872562,57.6684211 C15.5633264,57.6684211 16.111593,57.1774854 16.111593,56.5717836 C16.111593,55.9660819 15.5634897,55.4751462 14.8872562,55.4751462 L10.7306157,55.4751462 C12.7553988,49.8957602 12.9036054,44.0517544 11.1713182,38.0625731 L20.6568678,38.0625731 C18.8377459,43.8910819 19.1943884,50.2336257 21.7222252,56.9419591 C21.8668409,57.3255848 22.2357252,57.6067251 22.6816508,57.6730994 C23.6374855,57.8152047 24.5262355,58.2929825 25.203938,59.0247076 L25.1109008,60.9802632 C24.5481074,61.1833333 24.031343,61.4881579 23.5891715,61.8842105 C22.8789876,62.5203216 22.431593,63.3285088 22.2954649,64.2035088 L5.37053099,64.2035088 L5.48184917,61.8479532 Z M3.71561157,72.6606725 C3.10058678,72.6605263 2.60014463,72.2124269 2.60014463,71.6615497 C2.60014463,71.3954678 2.71668595,71.1440058 2.92659091,70.9549708 C3.13714876,70.7663743 3.41723967,70.6625731 3.71544835,70.6625731 L18.9751798,70.6625731 C18.9742004,70.6961988 18.973874,70.7298246 18.973874,70.7634503 C18.973874,71.4476608 19.1623967,72.0931287 19.4953719,72.6606725 L3.71561157,72.6606725 Z M19.7589773,68.4695906 L3.71577479,68.4695906 C3.10075,68.4695906 2.60030785,68.0214912 2.60030785,67.4704678 C2.60030785,67.2042398 2.7170124,66.9527778 2.92691736,66.7638889 C3.13747521,66.5752924 3.41756612,66.4714912 3.71577479,66.4714912 L22.6612479,66.4714912 C22.7053182,66.5580409 22.7526529,66.6429825 22.8030888,66.7260234 C21.8639029,66.8619883 20.9981674,67.2568713 20.3119773,67.8714912 C20.1051736,68.0568713 19.920405,68.2567251 19.7589773,68.4695906 Z M56.9572045,72.104386 C56.5568182,72.4628655 56.0250372,72.6603801 55.4597955,72.6603801 L23.540531,72.6603801 L23.540531,72.6605263 C22.3726694,72.6605263 21.4223843,71.8095029 21.4223843,70.7633041 C21.4223843,70.5070175 21.4782066,70.2589181 21.5890351,70.0238304 C21.6939876,69.8004386 21.8467645,69.5979532 22.0431219,69.4219298 C22.443345,69.0634503 22.9752893,68.8659357 23.5403678,68.8659357 L55.4596322,68.8659357 C56.313126,68.8659357 57.0792955,69.3210526 57.411781,70.0254386 C57.5217934,70.2586257 57.5776157,70.5067251 57.5776157,70.7631579 C57.5777789,71.2695906 57.3572645,71.7459064 56.9572045,72.104386 Z M56.1982169,66.7266082 C56.2489793,66.6429825 56.2964773,66.5578947 56.3403843,66.4714912 L75.2845517,66.4714912 C75.8995764,66.4714912 76.4000186,66.9195906 76.4000186,67.4704678 C76.4000186,67.7366959 76.2834773,67.9881579 76.0735723,68.1770468 C75.8628512,68.3657895 75.5827603,68.4695906 75.2845517,68.4695906 L59.2418388,68.4695906 C58.5398161,67.5391813 57.4398554,66.9076023 56.1982169,66.7266082 Z M76.0735723,72.3679825 C75.8628512,72.5567251 75.5827603,72.6605263 75.2845517,72.6605263 L59.5074029,72.6605263 C59.8464174,72.0821637 60.026126,71.4350877 60.026126,70.7633041 C60.026126,70.7296784 60.0256364,70.6960526 60.0248202,70.6624269 L75.2845517,70.6624269 C75.8995764,70.6624269 76.4000186,71.1105263 76.4000186,71.6614035 C76.4001818,71.9277778 76.2836405,72.1792398 76.0735723,72.3679825 Z" id="Shape"></path>
                </g>
            </g>
        </g>
    </g>
</svg>