<?xml version="1.0" encoding="UTF-8"?>
<svg width="66px" height="71px" viewBox="0 0 66 71" version="1.1" xmlns="http://www.w3.org/2000/svg" xmlns:xlink="http://www.w3.org/1999/xlink">
    <!-- Generator: Sketch 49.1 (51147) - http://www.bohemiancoding.com/sketch -->
    <title>Group</title>
    <desc>Created with Sketch.</desc>
    <defs></defs>
    <g id="White-Walls" stroke="none" stroke-width="1" fill="none" fill-rule="evenodd">
        <g id="Desktop-HD-Copy-3" transform="translate(-1322.000000, -64.000000)" fill="#06B393">
            <g id="Group" transform="translate(1322.000000, 64.000000)">
                <g id="Logo-Copy-7" transform="translate(0.000000, 48.000000)" font-family="Gotham-Bold, Gotham" font-size="14" font-weight="bold" letter-spacing="-0.486056417" line-spacing="30">
                    <text id="GO-BACK">
                        <tspan x="0" y="15">GO BACK</tspan>
                    </text>
                </g>
                <g id="anchor" transform="translate(7.000000, 0.000000)" fill-rule="nonzero">
                    <path d="M28.2608696,6.52173913 C28.2608696,4.72330742 26.7983362,3.26086957 25,3.26086957 C23.2016638,3.26086957 21.7391304,4.72340295 21.7391304,6.52173913 C21.7391304,8.32007531 23.2016638,9.7826087 25,9.7826087 C26.7983362,9.7826087 28.2608696,8.32007531 28.2608696,6.52173913 Z M25,8.15212615 C24.1008319,8.15212615 23.3695175,7.42090722 23.3695175,6.5216436 C23.3695175,5.62247551 24.1007364,4.89116105 25,4.89116105 C25.8991681,4.89116105 26.6304825,5.62237997 26.6304825,6.5216436 C26.6304825,7.42090722 25.8991681,8.15212615 25,8.15212615 Z" id="Shape"></path>
                    <path d="M17.6630222,20.0669047 L22.5543903,20.0669047 L22.5543903,42.6421725 C22.5543903,43.1036721 22.9196188,43.4782609 23.3695864,43.4782609 C23.8195541,43.4782609 24.1847826,43.1036721 24.1847826,42.6421725 L24.1847826,12.2959763 C24.1847826,11.9263846 23.9483346,11.6002974 23.6026907,11.4949658 C21.545068,10.8662093 20.1086107,8.89048144 20.1086107,6.68890291 C20.1086107,3.92215883 22.3023702,1.67217674 24.9999788,1.67217674 C27.6975873,1.67217674 29.8913468,3.92215883 29.8913468,6.68890291 C29.8913468,8.89038346 28.4548896,10.8662093 26.3972668,11.4949658 C25.966024,11.6262629 25.7205957,12.0919758 25.8494718,12.5350546 C25.9774881,12.9782314 26.432328,13.2290677 26.8635709,13.0977706 C29.6059852,12.2600165 31.5217391,9.62447159 31.5217391,6.68890291 C31.5219302,3.00082531 28.5960896,0 25.0000743,0 C21.404059,0 18.4782184,3.00082531 18.4782184,6.6890009 C18.4782184,9.41145669 20.1265712,11.8763154 22.5543903,12.8879891 L22.5543903,18.394728 L17.6630222,18.394728 C17.2130546,18.394728 16.8478261,18.7693167 16.8478261,19.2308163 C16.8478261,19.692316 17.2130546,20.0669047 17.6630222,20.0669047 Z" id="Shape"></path>
                    <path d="M49.9886215,37.3947978 L48.3219039,27.4203549 C48.2727822,27.1227775 48.0643815,26.875949 47.7794174,26.7745487 C47.4944533,26.6756809 47.1768717,26.734612 46.9494278,26.9341008 L39.1059816,33.8264019 C38.8451389,34.0550153 38.7543176,34.4223359 38.8784401,34.7465053 C39.0017813,35.0681421 39.3109644,35.2809757 39.656769,35.2809757 L39.6634097,35.2809757 L41.818414,35.2651958 C40.4084375,38.5442939 36.6950175,44.0368611 27.4998963,44.893845 L27.4998963,20.0766713 L32.4999515,20.0766713 C32.9599176,20.0766713 33.3332615,19.7042856 33.3332615,19.2455002 C33.3332615,18.7867148 32.9599176,18.4143291 32.4999515,18.4143291 L27.4998963,18.4143291 L27.4998963,15.5050841 C27.4998963,15.0462987 27.1265523,14.673913 26.6665863,14.673913 C26.2066202,14.673913 25.8332763,15.0462987 25.8332763,15.5050841 L25.8332763,45.790863 C25.8332763,46.0194765 25.9282968,46.238057 26.0949002,46.395174 C26.2615036,46.552291 26.4873851,46.6329437 26.7157079,46.6204756 C29.8440628,46.4367666 40.3266983,45.0345002 43.8217565,34.6902042 C43.9075972,34.4349988 43.8651163,34.1540779 43.707595,33.9371533 C43.5509527,33.7210079 43.300071,33.5930155 43.0325876,33.5930155 L43.0259469,33.5930155 L41.8825748,33.6021717 L46.9251111,29.171045 L48.0067637,35.6444974 L46.8442508,34.7883902 C46.6267679,34.628838 46.3433664,34.5822776 46.0876018,34.6686774 C45.8309584,34.7534212 45.6309561,34.9570985 45.552635,35.2147391 C44.3476412,39.1610729 39.9334322,48.3375604 24.9999663,48.3375604 C10.0648401,48.3375604 5.65141243,39.1601963 4.44719989,35.2145443 C4.36887871,34.956027 4.1688765,34.7523497 3.91223304,34.6676059 C3.65471066,34.5819854 3.37306692,34.6268899 3.15558404,34.7880979 L1.9939501,35.6434259 L3.07482143,29.1708502 L8.11823658,33.6019769 L6.97408331,33.5928207 L6.96744261,33.5928207 C6.70074044,33.5928207 6.44995642,33.7208131 6.29243514,33.9360818 C6.13491387,34.1538831 6.09155401,34.4339273 6.17827372,34.6891328 C9.6705975,45.0335262 20.1541119,46.4366692 23.284127,46.6202808 C23.7308116,46.6460936 24.1383356,46.2969881 24.1649961,45.8389819 C24.1925355,45.3809758 23.8416527,44.9878424 23.3824679,44.9612504 C13.5389997,44.3835315 9.63485492,38.6465709 8.18142088,35.2644165 L10.3373041,35.2810731 L10.3439448,35.2810731 C10.6897494,35.2810731 10.9989325,35.0691162 11.1222737,34.7466027 C11.2463962,34.4224333 11.1555749,34.0550153 10.8947321,33.8264993 L3.05060241,26.9341008 C2.82393975,26.7337353 2.5047956,26.6755835 2.22061277,26.7745487 C1.93564868,26.875949 1.72724793,27.1236542 1.6781263,27.4203549 L0.0114086453,37.3947978 C-0.0444513475,37.7289027 0.108089402,38.0638842 0.397252756,38.2409695 C0.687295027,38.4180549 1.05477956,38.4030542 1.32812243,38.2002535 L3.22316292,36.8046108 C7.68893496,49.0274918 20.9473824,50 24.9999663,50 C29.0525501,50 42.3093374,49.0274918 46.7759883,36.8046108 L48.6718101,38.2010328 C48.944274,38.4021776 49.3126375,38.4179574 49.6026798,38.2409695 C49.8919408,38.0638842 50.0443839,37.7289027 49.9886215,37.3947978 Z" id="Shape"></path>
                </g>
            </g>
        </g>
    </g>
</svg>