<?xml version="1.0" encoding="UTF-8"?>
<svg width="245px" height="841px" viewBox="0 0 245 841" version="1.1" xmlns="http://www.w3.org/2000/svg" xmlns:xlink="http://www.w3.org/1999/xlink">
    <!-- Generator: Sketch 49.1 (51147) - http://www.bohemiancoding.com/sketch -->
    <title>Page 1</title>
    <desc>Created with Sketch.</desc>
    <defs>
        <polygon id="path-1" points="0 0 245 0 245 840.875 0 840.875"></polygon>
        <linearGradient x1="50%" y1="-2.48949813e-15%" x2="50%" y2="100%" id="linearGradient-3">
            <stop stop-color="#00B791" offset="0%"></stop>
            <stop stop-color="#FD00D8" offset="100%"></stop>
        </linearGradient>
    </defs>
    <g id="White-Walls" stroke="none" stroke-width="1" fill="none" fill-rule="evenodd">
        <g id="Desktop-HD-Copy-2" transform="translate(-38.000000, -83.000000)">
            <g id="Page-1" transform="translate(38.000000, 83.000000)">
                <mask id="mask-2" fill="white">
                    <use xlink:href="#path-1"></use>
                </mask>
                <g id="Clip-2"></g>
                <path d="M106.224929,187.117142 C106.122013,188.275565 106.17387,190.440722 107.615486,192.184345 C109.637099,194.627333 113.49364,195.229298 116.912192,193.677282 C117.01431,192.518859 116.963251,190.352903 115.521636,188.610877 C113.500023,186.167889 109.644279,185.566723 106.224929,187.117142 Z M113.063629,196.038038 C110.455636,196.038038 108.016777,195.040086 106.451503,193.148766 C104.438665,190.716157 104.607,187.695954 104.772942,186.510386 L104.827989,186.118391 L105.181413,185.939558 C109.307609,183.860623 114.147034,184.577552 116.685619,187.645657 C118.698456,190.077468 118.530121,193.098469 118.36418,194.284037 L118.308334,194.676831 L117.954911,194.854866 C116.372883,195.651631 114.684748,196.038038 113.063629,196.038038 Z M128.90066,193.677282 C132.316819,195.227701 136.175754,194.627333 138.196569,192.184345 C139.638983,190.441521 139.690042,188.275565 139.587126,187.117142 C136.169372,185.565924 132.312032,186.167889 130.290419,188.610877 C128.848803,190.352903 128.797744,192.518859 128.90066,193.677282 Z M132.748426,196.038038 C131.126509,196.038038 129.43997,195.652429 127.857144,194.854866 L127.503721,194.676831 L127.448673,194.284037 C127.282732,193.098469 127.114397,190.077468 129.126436,187.645657 C131.665818,184.578351 136.505243,183.861421 140.630642,185.939558 L140.984065,186.118391 L141.039911,186.510386 C141.205852,187.695954 141.374187,190.716157 139.360552,193.148766 C137.795278,195.040086 135.356418,196.038038 132.748426,196.038038 Z M117.41241,211.591726 C118.539695,212.436393 120.37941,213.436741 122.798325,213.465482 C125.341696,213.491828 127.214121,212.476311 128.376509,211.610088 C127.217312,211.353814 126.208101,211.008922 125.404722,210.592177 C124.454548,210.098789 124.054055,210.153078 123.897687,210.229721 C123.782006,210.288001 123.676697,210.412545 123.586547,210.600161 L122.915601,211.980528 L122.230295,210.607346 C122.063556,210.27363 121.91357,210.22493 121.856927,210.206568 C121.692581,210.153078 121.288897,210.133917 120.407333,210.592177 C119.532152,211.046445 118.349819,211.377765 117.41241,211.591726 Z M122.906027,214.978378 C122.864542,214.978378 122.823057,214.978378 122.781571,214.977579 C118.629845,214.928879 115.93968,212.427611 115.213687,211.661982 L114.214847,210.608144 L115.650081,210.393385 C115.676408,210.389393 118.275624,209.994204 119.711656,209.249332 C120.787881,208.691277 121.619184,208.537992 122.325233,208.76792 C122.53585,208.837377 122.729715,208.939568 122.90523,209.075289 C123.004954,208.999445 123.110263,208.933181 123.221156,208.877295 C124.208827,208.381513 125.336111,208.852546 126.099601,209.248534 C126.796076,209.609393 128.064571,210.101184 130.154794,210.391788 L131.609972,210.594572 L130.599166,211.661982 C129.856419,212.445175 127.12397,214.978378 122.906027,214.978378 Z M118.518154,246.061802 C117.214557,244.292632 114.898558,241.849645 111.264601,240.254517 C107.826901,238.744815 104.633327,238.632246 102.560656,238.803095 L102.4362,237.295788 C104.681993,237.10977 108.14203,237.232717 111.872521,238.869359 C115.812033,240.597813 118.321896,243.246778 119.735589,245.164444 L118.518154,246.061802 Z M125.782079,246.062601 L124.564643,245.164444 C125.979932,243.24598 128.491391,240.597015 132.42851,238.869359 C136.158202,237.233516 139.61824,237.111366 141.864831,237.295788 L141.740375,238.803095 C139.667703,238.632246 136.474927,238.745613 133.035632,240.254517 C129.404069,241.848846 127.085676,244.292632 125.782079,246.062601 Z M101.742916,276.624695 C100.491973,276.624695 99.474784,277.642607 99.474784,278.89364 C99.474784,280.144673 100.491973,281.163383 101.742916,281.163383 C102.993061,281.163383 104.010249,280.144673 104.010249,278.89364 C104.010249,277.642607 102.993061,276.624695 101.742916,276.624695 Z M101.742916,282.675481 C99.6590747,282.675481 97.96376,280.978961 97.96376,278.89364 C97.96376,276.808319 99.6590747,275.111799 101.742916,275.111799 C103.825959,275.111799 105.521273,276.808319 105.521273,278.89364 C105.521273,280.978961 103.825959,282.675481 101.742916,282.675481 Z M144.069937,276.624695 C142.819792,276.624695 141.802603,277.642607 141.802603,278.89364 C141.802603,280.144673 142.819792,281.163383 144.069937,281.163383 C145.320082,281.163383 146.337271,280.144673 146.337271,278.89364 C146.337271,277.642607 145.320082,276.624695 144.069937,276.624695 Z M144.069937,282.675481 C141.986096,282.675481 140.290781,280.978961 140.290781,278.89364 C140.290781,276.808319 141.986096,275.111799 144.069937,275.111799 C146.153778,275.111799 147.849093,276.808319 147.849093,278.89364 C147.849093,280.978961 146.153778,282.675481 144.069937,282.675481 Z M122.150515,153.969153 L122.534255,154.195887 C123.983051,155.050135 125.104751,156.084014 125.97355,157.175374 C126.848731,144.808747 138.289113,120.517786 160.200557,101.331551 C168.239141,94.2923939 172.107649,86.888385 171.69838,79.3247037 C171.287516,71.7107256 166.707374,64.8743521 161.106852,59.2858183 C162.255677,68.3025184 159.766556,74.2135904 156.675898,81.552932 C155.75604,83.7380487 154.805068,85.9966147 153.846916,88.551373 C151.148773,95.7533963 144.24625,105.041539 138.155882,113.236725 C133.941928,118.908288 129.961728,124.265297 128.117225,127.956125 C123.714992,136.766049 123.661539,153.169992 123.661539,153.334455 L122.150515,153.334455 C122.150515,152.647864 122.202372,136.410778 126.764962,127.279114 C128.669299,123.46933 132.688591,118.060428 136.943233,112.334576 C142.973766,104.220025 149.808477,95.0220967 152.432426,88.0204623 C153.400151,85.4377613 154.357505,83.1640264 155.282948,80.9661359 C158.623316,73.0344098 161.043826,67.2885987 159.315802,57.5701384 C156.652762,55.1175705 153.843725,52.9412357 151.195045,51.0858425 C141.118095,44.0275244 125.410306,39.6477106 116.325015,37.5568006 C122.180832,40.2089591 131.086619,44.5121301 139.922998,49.8180437 C155.668283,59.2714478 147.802023,73.4383809 140.195046,87.139869 C137.97558,91.1396625 135.598948,95.1817691 133.301298,99.0913477 C127.624188,108.752326 122.262207,117.876805 119.078206,126.370578 C115.341334,136.344514 118.708029,151.244343 119.833718,155.593819 C120.402546,155.093246 121.043974,154.622213 121.765978,154.195887 L122.150515,153.969153 Z M93.7466149,109.049317 C86.8752053,118.514696 84.3701286,129.199174 85.8651967,142.661952 C87.1895366,154.585488 100.756043,161.683724 103.149428,162.847736 C103.991102,162.33918 104.934894,161.974328 105.934531,161.787511 C102.758509,159.39003 98.8756399,155.240145 97.9709402,148.902748 C97.4850829,145.498532 97.2577113,141.284778 97.2960055,136.379642 C97.3646159,127.541775 99.4795708,118.594532 103.413499,110.505529 C105.757421,105.684221 109.166399,99.2645922 113.251111,93.2976349 C112.546657,93.8788424 111.822259,94.4752188 111.08031,95.0851673 C108.43163,97.2646955 105.428729,99.7356258 102.234357,102.474806 L102.161758,102.529893 C99.2019381,104.504242 96.3936992,106.695745 93.7466149,109.049317 Z M161.228915,106.992736 C161.027073,109.586614 160.644929,112.796029 159.919733,115.698873 C158.686342,120.638339 150.824868,132.10122 144.509522,141.311922 C142.901965,143.656711 141.405301,145.839433 140.163134,147.70281 C136.590607,153.067004 134.61766,159.025977 133.616427,162.895638 C134.446134,162.277706 135.433007,161.85138 136.501254,161.66616 L136.59699,161.655782 C137.734646,161.602291 138.84039,161.790705 139.85359,162.165935 C140.625057,159.83871 143.268153,153.067802 149.582701,146.748767 C157.254299,139.07092 165.948671,130.369573 164.483121,118.635249 C163.602355,111.582519 162.171909,108.390668 161.228915,106.992736 Z M141.232977,162.824584 C142.520619,163.591809 143.573708,164.691154 144.231889,165.992484 C146.756113,164.074818 158.922489,154.782683 165.937502,148.569831 C169.003429,145.854602 170.61657,141.814092 170.251978,137.762405 C169.622518,130.772746 168.073997,126.225276 165.856924,124.773055 C164.289257,134.169776 156.846626,141.618493 150.652545,147.817774 C144.444103,154.029828 141.879989,160.85263 141.232977,162.824584 Z M71.8638919,138.40828 C76.7759166,162.993836 95.2432786,168.346055 99.4444678,169.253793 C99.4372876,168.963189 99.4484568,168.671787 99.478773,168.38278 C99.6630637,166.629577 100.523885,165.054409 101.793975,163.868841 C97.9797159,161.92962 85.6920751,154.797054 84.3629484,142.82881 C83.091263,131.378702 84.6397833,121.867018 89.2231164,113.386817 C81.8834011,120.960877 76.0251914,129.745254 71.8638919,138.40828 Z M121.395003,162.411032 L122.906027,162.411032 L122.906027,174.537352 C124.563048,173.160178 127.441493,170.097661 127.441493,165.436824 C127.441493,165.372157 127.380063,159.109805 122.150515,155.735928 C116.920968,159.109805 116.859538,165.372157 116.859538,165.436824 C116.859538,170.097661 119.737185,173.160178 121.395003,174.537352 L121.395003,162.411032 Z M107.360191,175.26945 L119.916689,175.26945 C118.017937,173.55856 115.348514,170.289268 115.348514,165.436824 C115.348514,165.317868 115.358885,164.157848 115.745816,162.564318 C113.776858,159.851484 100.049197,139.90441 108.624697,122.741224 C111.661105,116.664093 115.767356,109.814946 119.737983,103.191735 C127.613817,90.0586804 135.756114,76.4777449 135.756114,68.6194681 C135.756114,63.3742299 131.547744,57.7465764 123.90726,52.7711846 C119.251328,49.7390059 113.600545,47.1507164 107.869982,45.3615872 C112.857798,47.6552811 118.187867,50.3912676 123.525116,54.2281952 C128.29992,57.6635468 131.049122,63.3790201 130.699688,69.1455886 C130.213831,77.1643362 125.783674,82.5045794 118.269242,89.0639214 C112.568198,96.116651 107.784618,104.97288 104.772144,111.167371 C100.936345,119.055187 98.8740443,127.777292 98.8070295,136.390819 C98.7695331,141.220909 98.992118,145.358819 99.4668061,148.689585 C100.483995,155.808579 105.771781,160.017543 108.786649,161.874533 C110.308842,162.346365 111.600472,163.326753 112.410234,164.648042 C113.205636,165.947776 113.437795,167.419157 113.046875,168.685359 C112.438157,170.652523 110.292886,172.115122 107.828497,172.243658 L107.826901,172.243658 C105.704766,172.243658 104.010249,170.547139 104.010249,168.461817 C104.010249,166.376496 105.705564,164.679977 107.789405,164.679977 L107.789405,166.192873 C106.53926,166.192873 105.521273,167.210784 105.521273,168.461817 C105.521273,169.713649 106.53926,170.731561 107.789405,170.731561 C109.594018,170.636555 111.177641,169.611459 111.602068,168.239074 C111.864543,167.388021 111.689825,166.367714 111.120998,165.438421 C110.874479,165.036046 110.567328,164.674388 110.213904,164.362229 C109.929889,164.237684 109.147252,163.877623 108.105332,163.252506 C107.974493,163.218974 107.841262,163.189435 107.707232,163.164686 C104.313412,163.043335 101.309713,165.440816 100.982617,168.540855 C100.813484,170.143168 101.410235,171.810148 102.619692,173.116268 C103.848297,174.442347 105.557174,175.213565 107.360191,175.26945 Z M124.384342,175.26945 L137.059711,175.26945 C138.862728,175.214363 140.572403,174.442347 141.80021,173.116268 C143.009667,171.810148 143.606418,170.143168 143.438083,168.540855 C143.110189,165.440816 140.085748,163.037746 136.713468,163.164686 C135.26547,163.428944 134.0241,164.255248 133.299702,165.439219 C133.057971,165.832812 132.887242,166.24317 132.791507,166.650334 C132.74683,166.904213 132.726886,167.044725 132.724492,167.0567 L132.719705,167.055902 C132.671838,167.467857 132.702952,167.869433 132.817834,168.239074 C133.242261,169.611459 134.826682,170.636555 136.669589,170.732359 C137.88144,170.731561 138.898629,169.713649 138.898629,168.461817 C138.898629,167.210784 137.88144,166.192873 136.630497,166.192873 L136.630497,164.679977 C138.715136,164.679977 140.410451,166.376496 140.410451,168.461817 C140.410451,170.547937 138.715136,172.244456 136.630497,172.244456 C134.127814,172.115122 131.981745,170.652523 131.373027,168.685359 C131.152836,167.972422 131.130497,167.19322 131.295641,166.417212 C131.647469,164.316722 133.444901,155.060513 138.905809,146.864529 C140.150369,144.995564 141.651022,142.807254 143.263366,140.456078 C149.180613,131.826583 157.285413,120.006835 158.453386,115.331627 C159.497699,111.152202 159.809637,106.1816 159.902979,103.61806 C135.886952,125.250476 126.945264,150.436401 127.455055,159.51697 C128.925392,162.49007 128.952517,165.250806 128.952517,165.436824 C128.952517,170.289268 126.283094,173.55856 124.384342,175.26945 Z M141.625493,175.26945 L143.881657,175.26945 C145.426189,174.451129 157.429017,168.052258 165.726884,162.616211 C171.56834,158.788864 174.550498,152.091405 173.321894,145.552821 C173.001978,143.849915 172.426767,142.511062 171.573924,141.498739 C170.993927,144.631511 169.377594,147.543137 166.939532,149.702706 C159.436269,156.346675 146.105112,166.471501 144.782368,167.473445 C144.854967,167.770436 144.90842,168.073814 144.941129,168.38278 C145.155736,170.418603 144.414584,172.518295 142.908347,174.144558 C142.518225,174.566093 142.087416,174.942122 141.625493,175.26945 Z M144.825449,176.481363 L144.825449,188.443221 C149.36251,186.262096 166.861349,177.636593 170.675607,172.547036 C173.353805,168.973567 173.836471,160.8183 173.814931,155.108415 C172.415598,158.586878 169.922489,161.674942 166.554197,163.881615 C158.537154,169.134837 147.106345,175.267853 144.825449,176.481363 Z M102.498428,182.833131 L102.498428,198.386819 C102.498428,199.562806 102.743351,200.674925 103.226017,201.691239 C104.970795,205.366898 107.205419,208.779895 109.870055,211.834428 C113.539912,216.042594 117.923797,219.485131 122.906027,222.071824 C126.583863,220.162142 129.9354,217.787015 132.91357,214.982369 L132.91357,214.601551 L133.313265,214.601551 C134.225943,213.720159 135.10272,212.797253 135.942,211.834428 C138.606636,208.779895 140.842058,205.366898 142.586038,201.691239 C143.069502,200.674925 143.313627,199.562806 143.313627,198.386819 L143.313627,182.833131 L132.387025,182.833131 C130.946207,182.833131 129.570808,183.522118 128.706796,184.674154 L126.849529,187.15227 C126.255969,187.945043 125.928873,188.925431 125.928873,189.914602 L125.928873,203.256029 L124.417849,203.256029 L124.417849,189.914602 C124.417849,188.600498 124.85185,187.297571 125.640071,186.24533 L127.497338,183.767215 C128.645366,182.235158 130.473114,181.321034 132.387025,181.321034 L143.313627,181.321034 L143.313627,176.782346 L137.082049,176.782346 C136.928873,176.787136 136.7741,176.787136 136.620126,176.782346 L122.357144,176.782346 L122.150515,176.904495 L121.943886,176.782346 L107.800574,176.782346 C107.645802,176.787136 107.49103,176.787136 107.338651,176.782346 L102.498428,176.782346 L102.498428,181.321034 L113.42503,181.321034 C115.339738,181.321034 117.167487,182.235158 118.314716,183.767215 L120.171983,186.24533 C120.961003,187.297571 121.395003,188.600498 121.395003,189.914602 L121.395003,203.256029 L119.883182,203.256029 L119.883182,189.914602 C119.883182,188.925431 119.556086,187.945043 118.963324,187.15227 L117.106057,184.674154 C116.242045,183.522118 114.865848,182.833131 113.42503,182.833131 L102.498428,182.833131 Z M121.06711,300.716864 L121.575305,300.726445 C121.810655,300.619464 122.073129,300.573958 122.337199,300.600304 C122.576538,300.623456 122.816674,300.634633 123.056013,300.634633 C125.221229,300.34882 126.908566,299.47142 127.97442,298.754491 C128.003938,298.732935 128.034255,298.710581 128.063773,298.688227 L128.313483,298.517377 C128.534472,298.357705 128.717167,298.211605 128.863164,298.090254 C129.823709,297.152178 130.656607,296.062414 131.296439,294.88962 C135.58379,287.035335 130.487475,277.18275 128.917414,274.489875 L114.320156,274.489875 C112.690261,277.50449 107.329077,288.593738 112.286576,295.829292 C112.856202,296.659589 113.552677,297.419629 114.356855,298.088657 C115.255172,298.840714 117.653344,300.549208 121.06711,300.716864 Z M153.116136,284.666595 L153.284471,284.727271 C151.559638,289.475928 149.616209,296.523069 148.235225,303.92628 L148.307825,303.907119 L166.016483,293.273736 C167.137386,292.600717 167.923214,291.530912 168.229567,290.259121 C168.535921,288.988129 168.324505,287.677218 167.634412,286.566697 L155.407404,266.917412 L155.407404,277.383139 C155.407404,279.707969 154.810653,281.92502 153.681773,283.795582 C153.503067,284.093372 153.313989,284.383975 153.116136,284.666595 Z M140.538098,305.756924 L141.307172,305.756924 L146.622084,304.352605 C147.760537,298.063109 149.317036,291.98518 150.824868,287.267659 C148.532803,289.341803 145.666325,290.672672 142.637097,290.992017 C139.849601,291.284218 136.978336,290.712591 134.425391,289.370544 C134.264237,291.475825 133.724129,293.598669 132.623172,295.614533 C132.060727,296.646017 131.365847,297.618422 130.549703,298.514184 C132.085458,298.385647 133.515107,299.566425 134.784399,300.60669 C135.290201,301.021839 135.768081,301.413036 136.153416,301.633384 C137.442653,302.37107 139.765832,304.897088 140.538098,305.756924 Z M120.840536,306.354897 C120.874841,306.355695 120.909146,306.35809 120.943451,306.360485 L120.955418,306.360485 L120.955418,304.051622 L120.906753,304.051622 C120.208682,304.056413 119.715645,304.545808 119.644641,305.016842 C119.603155,305.30026 119.702082,305.610823 119.916689,305.869493 C120.146454,306.145726 120.479932,306.319769 120.840536,306.354897 Z M120.779903,307.867793 C120.444829,307.867793 120.167197,307.980362 119.957377,308.183146 C119.753141,308.381139 119.638258,308.643002 119.652619,308.884906 C119.665383,309.111641 119.788244,309.342367 119.990086,309.515612 C120.219053,309.712807 120.511844,309.807812 120.813411,309.783861 L120.955418,309.779071 L120.955418,307.872583 L120.906753,307.872583 C120.872448,307.871784 120.838142,307.870188 120.803837,307.867793 L120.779903,307.867793 Z M120.955418,311.295959 C120.394568,311.4221 119.994075,311.932253 120.051516,312.465559 C120.099384,312.915037 120.474348,313.297452 120.955418,313.395651 L120.955418,311.295959 Z M73.861571,299.236701 C74.9992268,299.888963 89.9794262,308.49291 99.2593793,314.174054 C98.1839515,303.626894 94.7837486,291.512549 92.028962,283.928909 L92.1781496,283.87462 C92.1621937,283.848274 92.1462378,283.821928 92.1294841,283.795582 C91.0014018,281.925819 90.4054488,279.708768 90.4054488,277.383139 L90.4054488,266.045601 L72.8595403,290.600022 C70.9567988,293.320041 71.3892038,297.022045 73.861571,299.236701 Z M120.955418,314.927707 C120.702517,315.014729 120.493495,315.179191 120.35787,315.398741 C120.237403,315.593541 120.193524,315.809897 120.235807,315.991924 C120.30362,316.279334 120.594017,316.526028 120.955418,316.611453 L120.955418,314.927707 Z M122.466442,316.642589 C126.702734,316.709651 132.101414,316.750368 132.840172,316.626622 C133.618023,316.497287 135.929235,315.259028 137.203314,314.508567 L137.381222,314.40478 L140.098513,314.40478 L145.365556,312.977309 C145.610479,310.672438 145.941564,308.325254 146.33408,305.993239 L141.405301,307.269819 L139.857579,307.269819 L139.6326,307.013545 C138.817254,306.089042 136.466949,303.555041 135.40269,302.946689 C134.908057,302.664069 134.383108,302.232954 133.827045,301.777089 C132.817834,300.949986 131.560509,299.914511 130.63746,300.025483 L130.553692,300.030273 L128.825667,300.030273 C127.961655,300.754387 126.614977,301.613425 124.799195,301.97668 C124.381948,302.059709 123.959117,302.113199 123.533094,302.135554 C123.180469,302.183455 122.824652,302.216188 122.466442,302.232155 L122.466442,302.539525 L129.146381,302.539525 L129.146381,304.051622 L122.466442,304.051622 L122.466442,306.360485 L123.52033,306.360485 L123.52033,307.872583 L122.466442,307.872583 L122.466442,309.779071 L123.721374,309.779071 L123.721374,311.291967 L122.466442,311.291967 L122.466442,313.398844 L123.721374,313.398844 L123.721374,314.910942 L122.466442,314.910942 L122.466442,316.642589 Z M100.870926,315.168014 C102.220795,316.005496 103.399138,316.75436 104.326176,317.369897 C104.492118,317.479272 104.745817,317.661299 105.025843,317.865679 C105.88427,318.494789 106.900661,318.843673 107.96492,318.877204 C110.300066,318.949855 113.806376,319.139865 117.394061,319.630059 L120.955418,318.612148 L120.955418,318.129937 C120.932282,318.129937 120.91154,318.129139 120.89319,318.129139 L120.782297,318.11876 C119.786648,317.951104 118.976088,317.23657 118.765471,316.339211 C118.62825,315.761197 118.737548,315.144862 119.072622,314.602774 C119.157188,314.466254 119.252923,314.338516 119.359828,314.221157 C118.912265,313.809202 118.614687,313.251147 118.547672,312.626828 C118.474275,311.942632 118.700051,311.276 119.121287,310.757863 C119.081397,310.727525 119.042305,310.695591 119.004809,310.662858 C118.492625,310.222162 118.178293,309.605028 118.142393,308.968734 C118.105694,308.285336 118.383327,307.602736 118.90668,307.095777 L118.952952,307.051867 C118.883544,306.984006 118.817327,306.912153 118.755099,306.837906 C118.264455,306.247916 118.043466,305.502246 118.150371,304.792502 C118.333066,303.577395 119.41328,302.641715 120.704113,302.54671 L120.704113,302.211398 C117.136373,301.959914 114.616138,300.278564 113.388331,299.250273 C112.479643,298.494225 111.68823,297.631195 111.039622,296.685136 C109.724856,294.765076 109.058697,292.621474 108.828932,290.429172 C106.987621,290.994412 105.049776,291.188414 103.175756,290.992017 C100.010902,290.6591 97.0223618,289.219654 94.6816308,286.983442 C97.278454,294.885629 100.052388,305.736166 100.870926,315.168014 Z M121.950269,320.437203 L123.348006,320.437203 L121.71093,319.969363 L120.873245,320.208872 C121.235444,320.280724 121.59525,320.357367 121.950269,320.437203 Z M114.360844,324.084919 C118.762279,324.417038 126.44026,323.714479 131.28527,321.950099 L127.024246,321.950099 L128.169082,322.33491 L124.996251,322.779597 C121.844162,323.221092 119.814571,323.345636 118.332268,323.437448 C116.581107,323.544428 115.61418,323.603507 114.360844,324.084919 Z M113.261482,217.347916 L113.255897,223.015487 C113.239941,223.143225 111.446498,235.780497 92.8538821,235.780497 C86.6574073,235.780497 73.8176922,242.926635 57.4509249,290.787637 C56.4265559,293.783091 56.8597587,297.046794 58.6093234,299.517725 C63.9473707,307.054262 77.4388844,315.577574 96.6011259,323.515687 C96.908277,323.643425 97.2050568,323.78713 97.4834873,323.943609 C98.0275836,324.248583 99.0016915,324.794663 99.4101626,325.015809 C99.4947289,325.062114 99.584082,325.109218 99.6782218,325.158716 C99.7260895,322.357264 99.6590747,319.555812 99.4763796,316.762343 C99.4604237,316.526826 99.4444678,316.289713 99.4261185,316.052599 C90.0009667,310.237331 73.2400885,300.623456 73.0430331,300.510887 L72.9209705,300.423067 C69.8175474,297.705443 69.2606864,293.106878 71.6253512,289.725815 L90.4054488,263.444538 L90.4054488,260.344498 C90.4054488,258.363762 89.6339809,256.500385 88.2338505,255.09926 L87.6027945,254.467756 L88.67184,253.397951 L89.302896,254.030253 C90.9886371,255.716394 91.9164728,257.958992 91.9164728,260.344498 L91.9164728,277.383139 C91.9164728,279.433333 92.4382309,281.379739 93.4235079,283.013188 C95.6142533,286.644936 99.3184162,289.064771 103.332921,289.487105 C105.126365,289.676317 106.983632,289.462356 108.736388,288.869971 C108.62709,282.021622 112.238709,275.103017 113.21521,273.363387 L113.431412,272.977778 L129.773448,272.977778 L129.993639,273.341033 C130.923869,274.872291 134.379917,281.005307 134.47645,287.665243 C136.923288,289.12864 139.7411,289.775314 142.479133,289.487105 C146.494436,289.064771 150.197801,286.644936 152.387749,283.013188 C153.375419,281.378941 153.89638,279.432534 153.89638,277.383139 L153.89638,260.344498 C153.89638,257.958992 154.824215,255.716394 156.509159,254.030253 L157.140215,253.397951 L158.20926,254.467756 L157.578204,255.09926 C156.178872,256.500385 155.407404,258.362964 155.407404,260.344498 L155.407404,264.056083 L168.917267,285.767537 C169.620124,286.897219 169.944827,288.185775 169.867441,289.485508 C174.98769,289.341803 179.174519,293.297687 179.361203,293.475721 L178.316091,294.567881 C178.274606,294.528761 174.212233,290.714986 169.589808,291.012775 C169.127885,292.505712 168.146597,293.75914 166.794334,294.571074 L148.797671,305.341775 L147.939243,305.569308 C147.534761,307.895735 147.191709,310.243718 146.931628,312.553379 L162.308332,308.397905 C183.031858,306.093034 185.718035,295.814124 185.911101,291.502171 C185.953384,290.54733 185.816961,289.596481 185.506619,288.674372 C185.19867,287.763441 184.871574,286.783851 184.525331,285.747578 C179.02214,269.282959 167.571386,235.02365 153.321169,235.02365 C134.729351,235.02365 132.93511,222.386378 132.919154,222.259439 L132.91357,222.165232 L132.91357,217.030168 C130.001617,219.608079 126.766558,221.806767 123.248281,223.595897 L122.906027,223.76994 L122.562975,223.595897 C119.191493,221.881015 116.080092,219.789307 113.261482,217.347916 Z M101.175683,325.892411 C104.519243,327.419677 110.608813,329.522563 118.34583,329.183259 C122.117806,329.020393 125.811597,328.30027 129.325087,327.043649 C131.750384,326.175829 133.485589,324.417836 134.060001,322.354869 C128.386082,325.421377 115.702735,326.324325 111.661105,325.192247 L109.899573,324.69886 L111.495961,323.803896 C114.288244,322.239106 115.433878,322.102586 117.867951,321.950099 L109.28208,321.950099 L113.552677,320.728606 C111.223913,320.520233 109.191131,320.428421 107.91785,320.389302 C106.547238,320.34619 105.238854,319.895914 104.133908,319.087173 C103.878613,318.900357 103.644859,318.731902 103.491683,318.631309 C102.796005,318.169057 101.955927,317.631759 101.008146,317.036181 C101.190044,319.982935 101.245889,322.938471 101.175683,325.892411 Z M146.34126,322.594377 C146.295785,328.393679 146.740955,334.210544 147.674375,339.967532 C149.778161,335.590114 150.575159,330.933268 150.801732,329.324569 C149.585095,327.912266 148.485733,326.348275 147.511625,324.642974 L146.34126,322.594377 Z M93.4857359,330.691365 C93.7322546,332.303257 94.7797596,337.952467 97.8983408,342.581369 C98.8812244,337.368864 99.4612215,332.102868 99.6359386,326.835276 C99.5529679,326.793761 99.4715928,326.753045 99.3926111,326.713127 L93.4857359,330.691365 Z M82.1833721,360.099028 C84.3350256,360.834319 86.7770765,360.717758 88.8505461,359.779683 C87.7440042,358.998086 86.7379846,358.079172 85.8612077,357.034914 C84.9365631,355.934772 84.1754666,354.752398 83.5866938,353.502961 C83.0984431,355.700053 82.6309352,357.897145 82.1833721,360.099028 Z M155.910015,359.972088 C158.103153,360.821545 160.621793,360.776039 162.76467,359.849939 C162.343435,357.782181 161.902254,355.712029 161.445117,353.648263 C161.235297,354.080177 161.005532,354.505704 160.757418,354.922449 C159.545567,356.953481 157.878175,358.66517 155.910015,359.972088 Z M100.986606,361.339682 L114.023376,361.339682 C113.030121,360.369672 110.330383,358.594914 103.071245,356.77864 C92.612948,354.16161 88.7444394,340.045772 87.7033167,335.130257 C83.6058408,339.557973 82.3429311,345.264664 84.3198675,351.269943 C84.8870998,352.992808 85.7949907,354.605499 87.0188085,356.060913 C89.8350253,359.41563 94.1223764,361.339682 98.7815,361.339682 L99.474784,361.339682 L100.986606,361.339682 Z M115.891812,361.339682 L119.126872,361.339682 L120.116138,361.339682 C117.029468,356.218988 111.303693,353.354466 102.916472,349.157477 C95.0486166,345.221552 92.6775694,335.003317 92.0879988,331.5512 C90.9503429,332.261742 89.9187938,333.033759 88.9957448,333.860063 C89.6347787,337.180451 93.1578421,352.738929 103.437432,355.311251 C112.803547,357.653645 115.260757,360.087052 115.891812,361.339682 Z M121.855331,361.339682 L122.4457,361.339682 C125.642465,355.343185 131.676987,352.32378 140.708826,347.804253 C143.180395,346.567591 145.070372,344.475084 146.509594,342.118319 C144.985806,333.700391 144.493566,325.137959 145.046438,316.664145 C145.091115,315.978352 145.145365,315.285374 145.207593,314.587605 L140.199035,315.916878 L137.790491,315.916878 C137.008652,316.370348 134.269024,317.922363 133.089085,318.11876 C132.097425,318.284021 125.595395,318.204983 122.466442,318.155485 L122.466442,318.612148 L132.4684,321.47188 C133.295714,321.098247 133.999369,320.686292 134.536285,320.234419 L135.778452,319.190162 L135.778452,320.813232 C135.759305,324.208665 133.425754,327.182564 129.834878,328.467926 C126.177785,329.775643 122.334008,330.525305 118.41125,330.694558 C110.803475,331.022685 104.712309,329.083464 101.123827,327.524263 C100.904433,333.109603 100.235083,338.688556 99.1229564,344.205238 C100.345179,345.653466 101.819504,346.917273 103.592205,347.804253 C112.624044,352.32378 118.658566,355.343185 121.855331,361.339682 Z M124.184893,361.339682 L128.40842,361.339682 C129.039476,360.087052 131.497483,357.653645 140.863598,355.311251 C151.523737,352.643924 154.912771,336.041188 155.362727,333.550299 C155.175245,333.395416 154.98537,333.243728 154.791506,333.095232 C153.852501,332.3799 152.960566,331.595909 152.116499,330.746451 C151.386516,335.022478 148.880642,345.406772 141.384558,349.157477 C132.997338,353.354466 127.271562,356.219787 124.184893,361.339682 Z M140.289984,361.339682 L146.240737,361.339682 C151.747917,361.339682 156.812321,358.583737 159.459405,354.147239 C160.524462,352.361303 161.197003,350.422881 161.460275,348.384662 C162.096916,343.449987 160.290708,338.420307 156.6751,334.754229 C155.759231,339.278546 151.969704,354.091354 141.229786,356.77864 C134.019314,358.58214 131.30681,360.344923 130.296004,361.339682 L138.77896,361.339682 L140.289984,361.339682 Z M159.97159,362.067788 C160.214119,365.087992 161.951717,367.776875 164.555721,369.247457 C164.08901,366.615258 163.59358,363.987849 163.069428,361.36044 C162.078567,361.754032 161.042231,361.990347 159.97159,362.067788 Z M81.5467316,363.302056 C82.456218,367.431982 86.1603809,370.416259 90.404651,370.416259 C94.8906531,370.416259 98.6275256,367.139782 99.3487324,362.852578 L98.7815,362.852578 C95.7426983,362.852578 92.8459042,362.102118 90.342423,360.714565 C87.7982543,362.16439 84.6517503,362.482138 81.8826033,361.592763 C81.7701142,362.161995 81.6576251,362.732025 81.5467316,363.302056 Z M101.112657,362.852578 C101.833864,367.139782 105.570737,370.416259 110.056739,370.416259 C114.542741,370.416259 118.278816,367.139782 119.00082,362.852578 L101.112657,362.852578 Z M120.764745,362.852578 C121.485952,367.139782 125.222027,370.416259 129.708827,370.416259 C134.194829,370.416259 137.930903,367.139782 138.65211,362.852578 L120.764745,362.852578 Z M140.416035,362.852578 C141.13804,367.139782 144.874114,370.416259 149.360117,370.416259 C154.117369,370.416259 158.030554,366.732617 158.401529,362.06699 C156.974273,361.960808 155.581323,361.566417 154.315222,360.909365 C151.888329,362.161995 149.119182,362.852578 146.240737,362.852578 L140.416035,362.852578 Z M78.6914228,380.052488 C79.309714,380.182621 79.9415677,380.248885 80.5790061,380.248885 C85.3346629,380.248885 89.2486459,376.565243 89.6204184,371.899616 C85.9194468,371.622584 82.662847,369.407928 80.9986463,366.190529 C80.1410165,370.804263 79.371942,375.425182 78.6914228,380.052488 Z M91.1888837,371.899616 C91.5606562,376.565243 95.4738414,380.248885 100.230296,380.248885 C104.986751,380.248885 108.900734,376.565243 109.271708,371.899616 C105.163861,371.597037 101.700632,368.937693 100.230296,365.270018 C98.7607574,368.937693 95.2975287,371.597037 91.1888837,371.899616 Z M110.840971,371.899616 C111.212744,376.565243 115.125929,380.248885 119.882384,380.248885 C124.638838,380.248885 128.552024,376.565243 128.923796,371.899616 C124.816747,371.597037 121.35272,368.936895 119.882384,365.270018 C118.412047,368.936895 114.948819,371.597037 110.840971,371.899616 Z M130.493059,371.899616 C130.864832,376.565243 134.778017,380.248885 139.534472,380.248885 C144.290926,380.248885 148.204111,376.565243 148.575884,371.899616 C144.468834,371.597037 141.004808,368.936895 139.534472,365.270018 C138.064135,368.936895 134.600109,371.597037 130.493059,371.899616 Z M150.145147,371.899616 C150.516919,376.565243 154.430105,380.248885 159.186559,380.248885 C161.747482,380.248885 164.171183,379.173492 165.890432,377.286962 C165.570516,375.219205 165.233049,373.154641 164.87803,371.090077 C162.245306,369.97237 160.218906,367.849526 159.187357,365.26922 C157.717021,368.936895 154.252994,371.597037 150.145147,371.899616 Z M78.4752203,381.551812 C78.3411907,382.490686 78.2103523,383.431156 78.0843007,384.37003 C78.519099,383.515783 78.8166766,382.59607 78.9618753,381.638834 C78.7991251,381.613286 78.6363749,381.584545 78.4752203,381.551812 Z M159.312611,381.760983 C159.994726,385.819855 163.380568,388.973385 167.545857,389.298318 C167.13579,385.90528 166.67626,382.516233 166.170458,379.128783 C164.282077,380.789376 161.858375,381.730645 159.312611,381.760983 Z M80.7050577,381.760983 C81.4262645,386.048187 85.1623392,389.325463 89.649139,389.325463 C94.1782221,389.325463 97.9430173,385.985914 98.6131653,381.638035 C94.8731016,381.061618 91.7744653,378.519633 90.404651,375.103442 C88.8569285,378.965119 85.0985155,381.709089 80.7050577,381.760983 Z M100.357145,381.760983 C101.078352,386.048187 104.813629,389.325463 109.300429,389.325463 C113.83031,389.325463 117.595105,385.985914 118.265253,381.638035 C114.525987,381.061618 111.426553,378.519633 110.056739,375.103442 C108.508218,378.964321 104.749806,381.709089 100.357145,381.760983 Z M120.008435,381.760983 C120.73044,386.048187 124.465717,389.325463 128.952517,389.325463 C133.482398,389.325463 137.247193,385.985914 137.917341,381.638035 C134.178075,381.061618 131.077843,378.519633 129.708827,375.103442 C128.160306,378.964321 124.401893,381.709089 120.008435,381.760983 Z M139.660523,381.760983 C140.38173,386.048187 144.117805,389.325463 148.604605,389.325463 C153.134485,389.325463 156.899281,385.985914 157.568631,381.638035 C153.830163,381.061618 150.729931,378.519633 149.360117,375.103442 C147.812394,378.964321 144.053981,381.709089 139.660523,381.760983 Z M80.5790061,398.40204 C85.0658059,398.40204 88.8010828,395.124764 89.5222896,390.83756 C85.1328207,390.785667 81.3760034,388.04489 79.8258875,384.187205 C79.3336478,385.419077 78.6076543,386.555147 77.670245,387.541124 C77.2537959,390.84714 76.8828212,394.154754 76.5573208,397.463166 C77.7819363,398.069921 79.1397836,398.392459 80.516778,398.40204 L80.5790061,398.40204 Z M100.168068,398.40204 L100.230296,398.40204 C104.717096,398.40204 108.453171,395.124764 109.174377,390.83756 C104.78092,390.785667 101.023304,388.041696 99.474784,384.18002 C98.1049698,387.596211 95.0063334,390.138195 91.2662698,390.714612 C91.9332265,395.042533 95.6669078,398.371702 100.168068,398.40204 Z M119.820156,398.40204 L119.882384,398.40204 C124.369184,398.40204 128.105258,395.124764 128.826465,390.83756 C124.433007,390.785667 120.674594,388.041696 119.126872,384.18002 C117.757058,387.596211 114.657623,390.138195 110.918358,390.714612 C111.586112,395.042533 115.318198,398.371702 119.820156,398.40204 Z M139.472244,398.40204 L139.534472,398.40204 C144.021271,398.40204 147.757346,395.124764 148.478553,390.83756 C144.085095,390.785667 140.326682,388.041696 138.77896,384.18002 C137.409145,387.596211 134.309711,390.138195 130.570445,390.714612 C131.237402,395.042533 134.970286,398.371702 139.472244,398.40204 Z M159.124331,398.40204 L159.186559,398.40204 C163.166759,398.40204 166.64355,395.852072 167.839445,392.056659 L167.871357,392.066239 C167.824287,391.652688 167.77642,391.239136 167.728552,390.825585 C163.509013,390.616414 159.930902,387.922741 158.431047,384.18002 C157.061233,387.596211 153.961799,390.138195 150.221735,390.714612 C150.88949,395.042533 154.623171,398.371702 159.124331,398.40204 Z M76.4033463,399.057495 C76.2070887,401.145211 76.0291804,403.229735 75.8696213,405.317451 C77.5210573,403.907544 78.6228124,401.937187 78.9586841,399.790391 C78.0795139,399.65467 77.2202885,399.407976 76.4033463,399.057495 Z M80.7050577,399.914137 C81.4262645,404.202139 85.1623392,407.478617 89.649139,407.478617 C94.1782221,407.478617 97.9430173,404.139069 98.6131653,399.791988 C94.8731016,399.215571 91.7744653,396.672788 90.404651,393.256597 C88.8569285,397.118274 85.0985155,399.863042 80.7050577,399.914137 Z M100.357145,399.914137 C101.078352,404.202139 104.813629,407.478617 109.300429,407.478617 C113.83031,407.478617 117.595105,404.139069 118.265253,399.791988 C114.525987,399.215571 111.426553,396.672788 110.056739,393.256597 C108.508218,397.118274 104.749806,399.863042 100.357145,399.914137 Z M120.008435,399.914137 C120.73044,404.202139 124.465717,407.478617 128.952517,407.478617 C133.482398,407.478617 137.247193,404.139069 137.917341,399.791988 C134.178075,399.215571 131.077843,396.672788 129.708827,393.256597 C128.160306,397.118274 124.401893,399.863042 120.008435,399.914137 Z M139.660523,399.914137 C140.38173,404.202139 144.117805,407.478617 148.604605,407.478617 C153.134485,407.478617 156.899281,404.139069 157.568631,399.791988 C153.830163,399.215571 150.729931,396.672788 149.360117,393.256597 C147.812394,397.118274 144.053981,399.863042 139.660523,399.914137 Z M159.312611,399.914137 C160.033818,404.202139 163.769892,407.478617 168.256692,407.478617 C168.600542,407.478617 168.943594,407.459456 169.284252,407.421135 C168.989866,403.252887 168.622082,399.082244 168.182497,394.915593 C166.309274,397.94857 163.003211,399.871824 159.312611,399.914137 Z M168.380351,408.990715 C168.571821,410.143549 168.982686,411.238902 169.592201,412.227274 C169.529176,411.12793 169.461363,410.030182 169.387966,408.931636 C169.05369,408.966764 168.717818,408.986723 168.380351,408.990715 Z M148.730656,408.990715 C149.452661,413.277918 153.187938,416.555993 157.674737,416.555993 L157.674737,416.555194 L157.78244,416.555194 C162.263655,416.502502 165.974998,413.181317 166.639561,408.867767 C162.899498,408.291349 159.800064,405.749365 158.431047,402.333174 C156.882527,406.194851 153.124114,408.938821 148.730656,408.990715 Z M129.078568,408.990715 C129.800573,413.277918 133.53585,416.555993 138.02265,416.555993 L138.02265,416.555194 L138.130352,416.555194 C142.611567,416.502502 146.322113,413.181317 146.987474,408.867767 C143.24741,408.291349 140.147976,405.749365 138.77896,402.333174 C137.230439,406.194851 133.472026,408.938821 129.078568,408.990715 Z M89.7751907,408.990715 C90.4963975,413.277918 94.2324721,416.555993 98.719272,416.555993 L98.719272,416.555194 L98.8269744,416.555194 C103.30819,416.502502 107.017937,413.181317 107.683298,408.867767 C103.944032,408.291349 100.844598,405.749365 99.474784,402.333174 C97.9270614,406.194851 94.1686485,408.938821 89.7751907,408.990715 Z M109.427278,408.990715 C110.148485,413.277918 113.88456,416.555993 118.37136,416.555993 L118.37136,416.555194 L118.478264,416.555194 C122.960277,416.502502 126.670025,413.181317 127.335386,408.867767 C123.595322,408.291349 120.496686,405.749365 119.126872,402.333174 C117.578351,406.194851 113.820736,408.938821 109.427278,408.990715 Z M75.2250029,415.703342 C76.4208978,416.262195 77.7388554,416.555993 79.0671843,416.555993 L79.0671843,416.555194 L79.1748866,416.555194 C83.6561019,416.502502 87.3658493,413.181317 88.0312105,408.867767 C84.2887535,408.291349 81.186926,405.745373 79.8195051,402.324392 C79.0105408,404.344248 77.5888699,406.103838 75.7236248,407.308566 C75.524176,410.107623 75.3582347,412.905083 75.2250029,415.703342 Z M75.1516057,417.318428 C75.0526791,419.606534 74.9760908,421.893042 74.9210429,424.179551 C77.0535493,422.796788 78.51511,420.569358 78.939537,418.067292 C77.6407266,418.052123 76.3522874,417.79505 75.1516057,417.318428 Z M80.684315,417.945142 C81.3552607,422.292223 85.120056,425.631771 89.649139,425.631771 C94.1351411,425.631771 97.8712158,422.354496 98.5932204,418.067292 C94.1997625,418.016197 90.4413496,415.271428 88.8928292,411.409751 C87.5238128,414.826741 84.4243787,417.367927 80.684315,417.945142 Z M100.336403,417.945142 C101.007348,422.292223 104.772144,425.631771 109.300429,425.631771 C113.787229,425.631771 117.523304,422.354496 118.24451,418.067292 C113.85185,418.016197 110.093437,415.27063 108.544917,411.409751 C107.175103,414.826741 104.075669,417.368725 100.336403,417.945142 Z M119.988491,417.945142 C120.659436,422.292223 124.424232,425.631771 128.952517,425.631771 C133.438519,425.631771 137.175391,422.354496 137.896598,418.067292 C133.50314,418.016197 129.744727,415.27063 128.197005,411.409751 C126.82719,414.826741 123.726959,417.368725 119.988491,417.945142 Z M139.640578,417.945142 C140.311524,422.292223 144.075521,425.631771 148.604605,425.631771 C153.090607,425.631771 156.827479,422.354496 157.548686,418.067292 C153.155228,418.016197 149.396815,415.27063 147.849093,411.409751 C146.479278,414.826741 143.379046,417.368725 139.640578,417.945142 Z M159.292666,417.945142 C159.962814,422.292223 163.727609,425.631771 168.256692,425.631771 C168.880568,425.631771 169.500455,425.568701 170.105981,425.443358 C170.033382,421.9138 169.909724,418.386637 169.732613,414.853086 C168.75691,413.847949 168.003791,412.683937 167.497191,411.418533 C166.125781,414.831531 163.027943,417.368725 159.292666,417.945142 Z M168.382744,427.143071 C168.634049,428.632016 169.250745,430.030746 170.177783,431.21791 C170.171401,429.805608 170.15704,428.39091 170.133904,426.97781 C169.557896,427.080798 168.971517,427.136684 168.382744,427.143071 Z M74.8197229,433.653712 C76.1225224,434.345094 77.5816897,434.708349 79.0671843,434.708349 C83.5970651,434.708349 87.3610626,431.368002 88.0312105,427.020921 C84.2911469,426.443706 81.1901171,423.900124 79.8211007,420.482337 C78.8924671,422.802377 77.1564649,424.76475 74.8827487,425.950318 C74.8332854,428.520245 74.8125428,431.086979 74.8197229,433.653712 Z M89.7751907,427.143071 C90.4963975,431.431871 94.2324721,434.708349 98.719272,434.708349 C103.249153,434.708349 107.01315,431.368002 107.683298,427.020921 C103.944032,426.443706 100.844598,423.902519 99.474784,420.486329 C97.9270614,424.347207 94.1686485,427.091975 89.7751907,427.143071 Z M109.427278,427.143071 C110.148485,431.431871 113.88456,434.708349 118.37136,434.708349 C122.900443,434.708349 126.665238,431.368002 127.335386,427.020921 C123.595322,426.443706 120.496686,423.902519 119.126872,420.486329 C117.578351,424.347207 113.820736,427.091975 109.427278,427.143071 Z M129.078568,427.143071 C129.800573,431.431871 133.53585,434.708349 138.02265,434.708349 C142.552531,434.708349 146.317326,431.368002 146.987474,427.020921 C143.24741,426.443706 140.147976,423.902519 138.77896,420.486329 C137.230439,424.347207 133.472026,427.091975 129.078568,427.143071 Z M148.730656,427.143071 C149.452661,431.431871 153.187938,434.708349 157.674737,434.708349 C162.204618,434.708349 165.969414,431.368002 166.639561,427.020921 C162.899498,426.443706 159.800064,423.902519 158.431047,420.486329 C156.882527,424.347207 153.124114,427.091975 148.730656,427.143071 Z M74.8277009,435.335861 C74.8412634,437.260712 74.8707818,439.184764 74.9170539,441.10722 C76.2645299,439.747609 77.1540715,437.988818 77.4484579,436.0967 C76.5453538,435.956987 75.6637902,435.701511 74.8277009,435.335861 Z M79.1932359,436.220446 C79.9144427,440.508448 83.6505174,443.784926 88.1373172,443.784926 C92.6671981,443.784926 96.4319933,440.445378 97.1013435,436.097498 C93.3620776,435.521081 90.2626435,432.979097 88.8928292,429.562906 C87.3451067,433.424583 83.5866938,436.168553 79.1932359,436.220446 Z M98.8453237,436.220446 C99.5665305,440.508448 103.302605,443.784926 107.789405,443.784926 C112.319286,443.784926 116.083283,440.445378 116.753431,436.097498 C113.014963,435.521081 109.914731,432.979097 108.544917,429.562906 C106.997194,433.424583 103.238782,436.168553 98.8453237,436.220446 Z M118.497411,436.220446 C119.218618,440.508448 122.954693,443.784926 127.441493,443.784926 C131.970576,443.784926 135.735371,440.445378 136.405519,436.097498 C132.667051,435.521081 129.566819,432.979097 128.197005,429.562906 C126.649282,433.424583 122.890869,436.168553 118.497411,436.220446 Z M138.149499,436.220446 C138.870706,440.508448 142.606781,443.784926 147.093581,443.784926 C151.622664,443.784926 155.387459,440.445378 156.057607,436.097498 C152.318341,435.521081 149.218907,432.979097 147.849093,429.562906 C146.300572,433.424583 142.542159,436.168553 138.149499,436.220446 Z M157.800789,436.220446 C158.522794,440.508448 162.258071,443.784926 166.74487,443.784926 C167.881729,443.784926 168.984281,443.578948 170.027797,443.173381 C170.036573,442.862019 170.045349,442.553852 170.053327,442.252071 C170.131511,439.318889 170.174592,436.380119 170.180176,433.441348 C168.994653,432.353979 168.085166,431.026303 167.50118,429.563704 C165.951862,433.425381 162.194247,436.168553 157.800789,436.220446 Z M166.870922,445.297023 C167.206794,447.308896 168.207229,449.13954 169.721444,450.510327 C169.829146,448.479294 169.911319,446.572007 169.974345,444.79645 C168.975506,445.116594 167.936776,445.285048 166.870922,445.297023 Z M75.3949332,452.602834 C76.0977907,452.774482 76.8229865,452.861503 77.5553625,452.861503 C82.0852433,452.861503 85.8500386,449.521955 86.5201865,445.174076 C82.7793251,444.597658 79.6790931,442.053279 78.3100767,438.634693 C77.6167927,440.367138 76.4719567,441.909574 74.9689106,443.077577 C75.0526791,445.892601 75.1867087,449.078864 75.3949332,452.602834 Z M88.2633689,445.297023 C88.9853735,449.585026 92.7206503,452.861503 97.2074502,452.861503 C101.737331,452.861503 105.502126,449.521955 106.172274,445.174076 C102.432211,444.597658 99.3327765,442.055674 97.96376,438.639483 C96.4152396,442.50116 92.6568267,445.24513 88.2633689,445.297023 Z M107.915457,445.297023 C108.636663,449.585026 112.372738,452.861503 116.859538,452.861503 C121.389419,452.861503 125.154214,449.521955 125.823564,445.174076 C122.084298,444.597658 118.984864,442.055674 117.61505,438.639483 C116.067327,442.50116 112.308914,445.24513 107.915457,445.297023 Z M127.567544,445.297023 C128.288751,449.585026 132.024826,452.861503 136.511626,452.861503 C141.041507,452.861503 144.805504,449.521955 145.475652,445.174076 C141.736386,444.597658 138.636952,442.055674 137.267138,438.639483 C135.719415,442.50116 131.961002,445.24513 127.567544,445.297023 Z M147.219632,445.297023 C147.940839,449.585026 151.676914,452.861503 156.163713,452.861503 C160.692797,452.861503 164.457592,449.521955 165.12774,445.174076 C161.388474,444.597658 158.28904,442.055674 156.919225,438.639483 C155.371503,442.50116 151.61309,445.24513 147.219632,445.297023 Z M75.4922642,454.173212 C75.6055511,455.957551 75.7371873,457.820129 75.8919596,459.762544 C77.5410022,458.355032 78.6228124,456.419004 78.9570885,454.282587 C77.8250172,454.432679 76.6291223,454.39835 75.4922642,454.173212 Z M80.6396385,453.916139 C81.1629921,458.426086 85.0035779,461.93808 89.649139,461.93808 C94.1678507,461.93808 97.9254659,458.614499 98.6083785,454.282587 C98.1496463,454.343263 97.6821383,454.374399 97.2074502,454.374399 C92.7597423,454.374399 88.9446859,451.614462 87.3818052,447.71606 C86.1962817,450.67479 83.7119476,452.977266 80.6396385,453.916139 Z M100.291726,453.916139 C100.81508,458.426086 104.655666,461.93808 109.300429,461.93808 C113.819938,461.93808 117.576756,458.614499 118.259668,454.282587 C117.801734,454.343263 117.334226,454.374399 116.859538,454.374399 C112.412628,454.374399 108.596774,451.614462 107.033893,447.71606 C105.846774,450.673991 103.364035,452.977266 100.291726,453.916139 Z M119.943016,453.916139 C120.467168,458.426086 124.307753,461.93808 128.952517,461.93808 C133.471228,461.93808 137.228844,458.614499 137.911756,454.282587 C137.453822,454.343263 136.986314,454.374399 136.511626,454.374399 C132.064716,454.374399 128.248064,451.614462 126.685183,447.71606 C125.498862,450.673991 123.016123,452.977266 119.943016,453.916139 Z M139.595104,453.916139 C140.118458,458.426086 143.959841,461.93808 148.604605,461.93808 C153.123316,461.93808 156.880931,458.614499 157.563844,454.282587 C157.105112,454.343263 156.637604,454.374399 156.163713,454.374399 C151.716006,454.374399 147.900151,451.614462 146.337271,447.71606 C145.150949,450.673991 142.668211,452.977266 139.595104,453.916139 Z M159.247192,453.916139 C159.795277,458.64324 164.030771,462.270199 168.930829,461.913331 C169.220429,458.506721 169.444609,455.318861 169.617731,452.368914 C167.967093,451.176161 166.720937,449.561873 165.986965,447.723245 C164.799846,450.677983 162.317905,452.978064 159.247192,453.916139 Z M76.7703321,469.290196 C78.3228414,470.419079 80.1561746,471.015456 82.0908279,471.015456 C86.6095395,471.015456 90.3671547,467.691077 91.0500673,463.359165 C90.5913351,463.41984 90.1238272,463.450976 89.649139,463.450976 C85.2038245,463.450976 81.3911615,460.695031 79.8258875,456.800621 C79.0695777,458.697529 77.767576,460.353332 76.0387539,461.556463 C76.2461806,464.021805 76.4887104,466.601313 76.7703321,469.290196 Z M92.7334151,462.992716 C93.2567687,467.502663 97.0981523,471.015456 101.742916,471.015456 C106.261627,471.015456 110.019242,467.691077 110.702155,463.359165 C110.243423,463.41984 109.775915,463.450976 109.300429,463.450976 C104.852721,463.450976 101.037665,460.691039 99.474784,456.792637 C98.2892604,459.750568 95.8049264,462.053843 92.7334151,462.992716 Z M112.385503,462.992716 C112.908856,467.502663 116.749442,471.015456 121.395003,471.015456 C125.913715,471.015456 129.67133,467.691077 130.354243,463.359165 C129.895511,463.41984 129.428003,463.450976 128.952517,463.450976 C124.504809,463.450976 120.689752,460.691039 119.126872,456.792637 C117.941348,459.750568 115.457014,462.053843 112.385503,462.992716 Z M132.036793,462.992716 C132.560944,467.502663 136.40153,471.015456 141.046293,471.015456 C145.565803,471.015456 149.32262,467.691077 150.006331,463.359165 C149.547598,463.41984 149.08009,463.450976 148.604605,463.450976 C144.156897,463.450976 140.34184,460.691039 138.77896,456.792637 C137.592638,459.750568 135.109102,462.053843 132.036793,462.992716 Z M151.688881,462.992716 C152.213032,467.502663 156.053618,471.015456 160.698381,471.015456 C163.847278,471.015456 166.724128,469.418732 168.394711,466.743421 L168.48167,466.79771 C168.59416,465.656052 168.699469,464.53595 168.797597,463.436606 C164.14326,463.674518 160.056954,460.848316 158.431047,456.792637 C157.244726,459.750568 154.76119,462.053843 151.688881,462.992716 Z M116.8731,471.512037 C117.131586,476.286242 121.095032,480.092033 125.929671,480.092033 L125.929671,480.091235 L126.037373,480.091235 C130.989288,480.032954 134.999804,475.983662 134.999804,471.015456 L135.600544,471.015456 C133.634776,469.829888 132.083863,468.023994 131.220648,465.869215 C129.657768,469.767616 125.842711,472.527553 121.395003,472.527553 C119.777873,472.527553 118.24451,472.1635 116.8731,471.512037 Z M136.52439,471.512037 C136.783674,476.286242 140.746322,480.092033 145.581759,480.092033 L145.581759,480.091235 L145.689461,480.091235 C150.641376,480.032954 154.651892,475.983662 154.651892,471.015456 L155.252631,471.015456 C153.286864,469.829888 151.73595,468.023994 150.872736,465.869215 C149.309855,469.767616 145.494799,472.527553 141.046293,472.527553 C139.42996,472.527553 137.896598,472.1635 136.52439,471.512037 Z M156.176478,471.512037 C156.435762,476.286242 160.39841,480.092033 165.233846,480.092033 L165.233846,480.091235 L165.341549,480.091235 C165.887241,480.084848 166.432135,480.029761 166.96586,479.925974 C167.451717,476.257501 167.865773,472.745506 168.2176,469.394781 C166.253429,471.385896 163.572837,472.527553 160.698381,472.527553 C159.082048,472.527553 157.548686,472.1635 156.176478,471.512037 Z M97.2210127,471.512037 C97.4794984,476.286242 101.442945,480.092033 106.277583,480.092033 L106.277583,480.091235 L106.385286,480.091235 C111.3372,480.032954 115.348514,475.983662 115.348514,471.015456 L115.948456,471.015456 C113.983486,469.829888 112.431775,468.023994 111.568561,465.869215 C110.00568,469.767616 106.190624,472.527553 101.742916,472.527553 C100.125785,472.527553 98.5932204,472.162702 97.2210127,471.512037 Z M77.5697228,471.518424 C77.8313996,476.290233 81.7932503,480.092033 86.6262932,480.092033 L86.6262932,480.091235 L86.7331978,480.091235 C91.6851122,480.032954 95.6964262,475.983662 95.6964262,471.015456 L96.297166,471.015456 C94.3313987,469.829888 92.7796872,468.023994 91.9164728,465.869215 C90.3535922,469.767616 86.537738,472.527553 82.0908279,472.527553 C80.5008221,472.527553 78.9698533,472.182661 77.5697228,471.518424 Z M77.5984434,476.536129 C78.0890874,480.500794 78.6658933,484.663454 79.340828,488.992971 C83.0441931,488.256083 85.8819504,485.284579 86.4994438,481.603332 C82.7378397,481.560221 79.4405524,479.539567 77.5984434,476.536129 Z M88.243424,481.481183 C88.9143697,485.828264 92.679165,489.167812 97.2074502,489.167812 C101.693452,489.167812 105.430325,485.890536 106.151532,481.603332 C101.758074,481.552237 97.9996608,478.807469 96.4519382,474.945792 C95.082124,478.362781 91.9826898,480.903967 88.243424,481.481183 Z M107.895512,481.481183 C108.566457,485.828264 112.330455,489.167812 116.859538,489.167812 C121.34554,489.167812 125.082413,485.890536 125.803619,481.603332 C121.410161,481.552237 117.651749,478.807469 116.104026,474.945792 C114.734212,478.362781 111.634778,480.903967 107.895512,481.481183 Z M127.5476,481.481183 C128.217747,485.828264 131.982543,489.167812 136.511626,489.167812 C140.997628,489.167812 144.7345,485.890536 145.455707,481.603332 C141.062249,481.552237 137.303836,478.807469 135.756114,474.945792 C134.386299,478.362781 131.286865,480.903967 127.5476,481.481183 Z M147.198889,481.481183 C147.869835,485.828264 151.63463,489.167812 156.163713,489.167812 C160.649716,489.167812 164.38579,485.890536 165.107795,481.603332 C160.714337,481.552237 156.955924,478.807469 155.407404,474.945792 C154.038387,478.362781 150.938953,480.903967 147.198889,481.481183 Z M157.78244,490.556163 C158.31776,493.997902 160.810072,496.881585 164.174375,497.874748 C164.985732,493.328875 165.689387,488.940279 166.299701,484.728919 C166.187212,484.498193 166.083498,484.262676 165.988561,484.024764 C164.617949,487.439358 161.52011,489.979746 157.78244,490.556163 Z M80.1027224,493.382365 C81.6767722,496.381012 84.7554636,498.244389 88.1373172,498.244389 C92.6241171,498.244389 96.3601918,494.967912 97.0813986,490.679111 C92.6887385,490.628016 88.9311234,487.884046 87.382603,484.024764 C86.0718256,487.301242 83.1702447,489.794526 79.5761776,490.488303 C79.730152,491.453522 79.8889133,492.426725 80.0532591,493.407912 L80.1027224,493.382365 Z M98.8253788,490.556962 C99.4947289,494.904043 103.259524,498.244389 107.789405,498.244389 C112.276205,498.244389 116.01228,494.967912 116.733486,490.679111 C112.340028,490.628016 108.581616,487.883248 107.033893,484.022369 C105.664079,487.43856 102.563847,489.979746 98.8253788,490.556962 Z M118.476669,490.556962 C119.146817,494.904043 122.911612,498.244389 127.441493,498.244389 C131.928293,498.244389 135.663569,494.967912 136.385574,490.679111 C131.992116,490.628016 128.233703,487.883248 126.685183,484.022369 C125.316166,487.43856 122.215935,489.979746 118.476669,490.556962 Z M138.128756,490.556962 C138.798904,494.904043 142.5637,498.244389 147.093581,498.244389 C151.58038,498.244389 155.315657,494.967912 156.037662,490.679111 C151.644204,490.628016 147.885791,487.883248 146.337271,484.022369 C144.968254,487.43856 141.868022,489.979746 138.128756,490.556962 Z M80.6005465,496.605352 C81.1741612,499.873846 81.8028238,503.225369 82.4921188,506.652737 C85.4311961,505.460783 87.4998789,502.850938 88.013659,499.756487 C85.1759017,499.723754 82.5312108,498.566927 80.6005465,496.605352 Z M89.754448,499.633539 C90.4245959,503.981418 94.1893912,507.320966 98.719272,507.320966 C103.206072,507.320966 106.941349,504.044489 107.663353,499.756487 C103.269896,499.704593 99.5114826,496.960623 97.96376,493.098946 C96.5939458,496.515137 93.4945116,499.057122 89.754448,499.633539 Z M109.406536,499.633539 C110.076684,503.981418 113.841479,507.320966 118.37136,507.320966 C122.85816,507.320966 126.593437,504.044489 127.315441,499.756487 C122.921983,499.704593 119.16357,496.960623 117.61505,493.098946 C116.246034,496.515137 113.146599,499.057122 109.406536,499.633539 Z M129.058624,499.633539 C129.728771,503.981418 133.493567,507.320966 138.02265,507.320966 C142.50945,507.320966 146.245524,504.044489 146.966731,499.756487 C142.574071,499.704593 138.815658,496.960623 137.267138,493.098946 C135.897323,496.515137 132.798687,499.057122 129.058624,499.633539 Z M148.710711,499.633539 C149.380859,503.981418 153.145654,507.320966 157.674737,507.320966 C159.41792,507.320966 161.110841,506.825184 162.570806,505.887108 L162.639417,505.99329 C163.085384,503.753885 163.508216,501.543221 163.903922,499.370878 C160.684819,498.474317 158.129481,496.101586 156.921619,493.092559 C155.5534,496.511944 152.451573,499.057122 148.710711,499.633539 Z M157.799991,508.833064 C158.155808,510.95032 159.248787,512.87038 160.898628,514.261925 C161.383687,512.072817 161.842419,509.914844 162.278015,507.781621 C160.887459,508.45464 159.361276,508.814702 157.799991,508.833064 Z M84.3972536,515.592795 C85.5724059,516.126899 86.8289332,516.397544 88.1373172,516.397544 C92.6671981,516.397544 96.4319933,513.057995 97.1013435,508.710116 C93.3676622,508.134497 90.2706215,505.597303 88.897616,502.187499 C87.8181992,504.903526 85.6386229,507.091038 82.7984722,508.156851 C83.2994875,510.598242 83.8324147,513.08035 84.3972536,515.592795 Z M98.8453237,508.833064 C99.5665305,513.121066 103.302605,516.397544 107.789405,516.397544 C112.319286,516.397544 116.083283,513.057995 116.753431,508.710116 C113.014963,508.134497 109.914731,505.591714 108.544917,502.175523 C106.997194,506.0372 103.238782,508.78117 98.8453237,508.833064 Z M118.497411,508.833064 C119.218618,513.121066 122.954693,516.397544 127.441493,516.397544 C131.970576,516.397544 135.735371,513.057995 136.405519,508.710116 C132.667051,508.134497 129.566819,505.591714 128.197005,502.175523 C126.649282,506.0372 122.890869,508.78117 118.497411,508.833064 Z M138.149499,508.833064 C138.870706,513.121066 142.606781,516.397544 147.093581,516.397544 C151.622664,516.397544 155.387459,513.057995 156.057607,508.710116 C152.318341,508.134497 149.218907,505.591714 147.849093,502.175523 C146.300572,506.0372 142.542159,508.78117 138.149499,508.833064 Z M84.8017358,517.374739 C85.1751039,518.999405 85.5628323,520.641636 85.9641233,522.292648 C87.0291798,521.043212 87.7368241,519.526324 88.0104678,517.909641 C86.9047238,517.896867 85.8308915,517.718034 84.8017358,517.374739 Z M89.754448,517.787492 C90.4245959,522.134573 94.1893912,525.474121 98.719272,525.474121 C103.206072,525.474121 106.941349,522.197643 107.663353,517.909641 C103.269896,517.857748 99.5114826,515.113778 97.96376,511.252101 C96.5939458,514.668292 93.4945116,517.210276 89.754448,517.787492 Z M109.406536,517.787492 C110.076684,522.134573 113.841479,525.474121 118.37136,525.474121 C122.85816,525.474121 126.593437,522.197643 127.315441,517.909641 C122.921983,517.857748 119.16357,515.113778 117.61505,511.252101 C116.246034,514.668292 113.146599,517.210276 109.406536,517.787492 Z M129.058624,517.787492 C129.728771,522.134573 133.493567,525.474121 138.02265,525.474121 C142.50945,525.474121 146.245524,522.197643 146.966731,517.909641 C142.574071,517.857748 138.815658,515.113778 137.267138,511.252101 C135.897323,514.668292 132.798687,517.210276 129.058624,517.787492 Z M148.710711,517.787492 C149.380859,522.134573 153.145654,525.474121 157.674737,525.474121 C157.867804,525.474121 158.061668,525.468532 158.253937,525.456557 C159.06689,522.219199 159.826391,519.030541 160.534035,515.894576 C158.891375,514.702621 157.650006,513.090728 156.91763,511.256891 C155.547018,514.670687 152.447584,517.211074 148.710711,517.787492 Z M89.1417413,534.537126 C89.3100761,534.546706 89.4792087,534.551496 89.649139,534.551496 C94.1359389,534.551496 97.8712158,531.274221 98.5932204,526.986218 C94.1989647,526.935123 90.4405518,524.189556 88.8920315,520.327081 C88.3375638,521.716231 87.4903054,522.985627 86.3925393,524.040263 C87.2445845,527.484396 88.1604533,530.988407 89.1417413,534.537126 Z M100.336403,526.864069 C101.006551,531.21115 104.771346,534.551496 109.300429,534.551496 C113.787229,534.551496 117.523304,531.274221 118.24451,526.986218 C113.85185,526.935123 110.093437,524.190355 108.544917,520.328678 C107.175103,523.744869 104.075669,526.287652 100.336403,526.864069 Z M119.988491,526.864069 C120.658638,531.21115 124.423434,534.551496 128.952517,534.551496 C133.439317,534.551496 137.175391,531.274221 137.896598,526.986218 C133.50314,526.935123 129.744727,524.190355 128.197005,520.328678 C126.82719,523.744869 123.726959,526.287652 119.988491,526.864069 Z M139.640578,526.864069 C140.310726,531.21115 144.074724,534.551496 148.604605,534.551496 C153.091404,534.551496 156.827479,531.274221 157.548686,526.986218 C153.155228,526.935123 149.396815,524.190355 147.849093,520.328678 C146.479278,523.744869 143.379046,526.287652 139.640578,526.864069 Z M148.729061,536.062796 C149.197366,538.880215 150.961291,541.310429 153.527798,542.626928 C154.535414,539.264227 155.481599,535.940646 156.37114,532.65858 C154.463612,534.723144 151.746322,536.027668 148.729061,536.062796 Z M129.078568,536.062796 C129.800573,540.350798 133.53585,543.628074 138.02265,543.628074 L138.02265,543.627275 L138.130352,543.627275 C142.611567,543.574583 146.322113,540.253398 146.987474,535.940646 C143.24741,535.363431 140.147976,532.822244 138.77896,529.405255 C137.230439,533.266932 133.472026,536.0117 129.078568,536.062796 Z M109.427278,536.062796 C110.148485,540.350798 113.88456,543.628074 118.37136,543.628074 L118.37136,543.627275 L118.478264,543.627275 C122.960277,543.574583 126.670025,540.253398 127.335386,535.940646 C123.595322,535.363431 120.496686,532.822244 119.126872,529.405255 C117.578351,533.266932 113.820736,536.0117 109.427278,536.062796 Z M89.7751907,536.062796 C90.4963975,540.350798 94.2324721,543.628074 98.719272,543.628074 L98.719272,543.627275 L98.8269744,543.627275 C103.30819,543.574583 107.017937,540.253398 107.683298,535.940646 C103.944032,535.363431 100.844598,532.822244 99.474784,529.405255 C97.9270614,533.266932 94.1686485,536.0117 89.7751907,536.062796 Z M91.3165309,542.111984 C92.2371865,545.198452 93.2073054,548.316055 94.2316743,551.461601 C96.5468758,550.101192 98.1432639,547.769975 98.5916248,545.139373 C95.763441,545.105842 93.1985296,543.956999 91.3165309,542.111984 Z M100.336403,545.017223 C101.007348,549.364304 104.772144,552.703852 109.300429,552.703852 C113.787229,552.703852 117.523304,549.426577 118.24451,545.139373 C113.85185,545.088278 110.093437,542.343509 108.544917,538.481832 C107.175103,541.898822 104.075669,544.440806 100.336403,545.017223 Z M119.988491,545.017223 C120.659436,549.364304 124.424232,552.703852 128.952517,552.703852 C133.438519,552.703852 137.175391,549.426577 137.896598,545.139373 C133.50314,545.088278 129.744727,542.343509 128.197005,538.481832 C126.82719,541.898822 123.726959,544.440806 119.988491,545.017223 Z M139.640578,545.017223 C140.311524,549.364304 144.075521,552.703852 148.604605,552.703852 C149.218109,552.703852 149.826827,552.643177 150.420386,552.521826 C150.426769,552.504262 150.433151,552.485101 150.438736,552.467537 C151.36338,549.653311 152.244146,546.863036 153.085022,544.095914 C150.653342,542.92791 148.809638,540.91524 147.845104,538.492211 C146.472896,541.90441 143.375855,544.440806 139.640578,545.017223 Z M147.203676,554.124138 C147.411103,555.439839 147.90414,556.690872 148.651674,557.792612 C149.077697,556.547965 149.489359,555.328068 149.885864,554.140106 C148.992333,554.246288 148.07806,554.239901 147.203676,554.124138 Z M94.7111492,552.928192 C95.6302092,555.712879 96.6450046,558.68518 97.7220281,561.765261 C102.133835,561.517769 105.712744,558.100779 106.216951,553.75769 C103.143046,552.818018 100.657116,550.513147 99.4723906,547.552023 C98.5668931,549.812185 96.8979057,551.733843 94.7111492,552.928192 Z M107.901096,554.124138 C108.583211,558.456849 112.340826,561.78043 116.859538,561.78043 C121.504301,561.78043 125.345685,558.268435 125.869039,553.75769 C122.795932,552.818817 120.312395,550.517139 119.126872,547.55841 C117.563991,551.456013 113.748935,554.21595 109.300429,554.21595 C108.826539,554.21595 108.359031,554.184814 107.901096,554.124138 Z M127.552386,554.124138 C128.235299,558.456849 131.992914,561.78043 136.511626,561.78043 C141.156389,561.78043 144.997773,558.268435 145.521126,553.75769 C142.448019,552.818817 139.964483,550.517139 138.77896,547.55841 C137.216079,551.456013 133.400225,554.21595 128.952517,554.21595 C128.478626,554.21595 128.011118,554.184814 127.552386,554.124138 Z M136.635284,563.292527 C137.265542,567.084747 140.226958,570.097765 144.081904,570.734059 C145.470067,566.899527 146.815948,563.115291 148.05971,559.51388 C147.329728,558.646061 146.750529,557.674454 146.336473,556.63818 C144.787155,560.49826 141.028742,563.241432 136.635284,563.292527 Z M100.077119,568.405237 C101.76286,569.987591 103.958393,570.857007 106.277583,570.857007 C110.807464,570.857007 114.572259,567.517459 115.242407,563.16958 C111.503141,562.593961 108.402909,560.051178 107.033893,556.634987 C105.593075,560.227616 102.239144,562.854227 98.2397971,563.243029 C98.8373457,564.939548 99.4508502,566.663211 100.077119,568.405237 Z M116.98559,563.292527 C117.707594,567.580529 121.442871,570.857007 125.929671,570.857007 C130.459552,570.857007 134.224347,567.517459 134.894495,563.16958 C131.155229,562.593961 128.054997,560.051178 126.685183,556.634987 C125.13746,560.496664 121.379047,563.240634 116.98559,563.292527 Z M101.000168,570.963189 C101.643989,572.738746 102.29499,574.52069 102.951575,576.304231 C103.85069,575.110679 104.434676,573.722328 104.660452,572.246955 C103.365631,572.048961 102.127453,571.613854 101.000168,570.963189 Z M106.403635,572.369104 C107.124842,576.657107 110.860916,579.933584 115.347716,579.933584 C119.876799,579.933584 123.641594,576.594036 124.311742,572.246157 C120.572477,571.669739 117.47384,569.127755 116.104026,565.711564 C114.555506,569.573241 110.797093,572.318009 106.403635,572.369104 Z M126.054925,572.369104 C126.776929,576.657107 130.512206,579.933584 134.999006,579.933584 C137.650079,579.933584 140.143189,578.787935 141.871213,576.782449 C142.43685,575.247998 143.000891,573.707957 143.557752,572.176699 C139.955707,571.485318 137.057318,569.005605 135.751327,565.723539 C134.199615,569.578829 130.444394,572.318009 126.054925,572.369104 Z M135.125856,581.445682 C135.47529,583.520624 136.536357,585.414339 138.135139,586.798699 C139.008725,584.482651 139.895075,582.113911 140.780628,579.728405 C139.115629,580.818169 137.162627,581.421731 135.125856,581.445682 Z M103.557102,577.945663 C104.890217,581.551065 106.231311,585.130122 107.536504,588.579046 C110.831398,587.528402 113.212816,584.704595 113.730585,581.323532 C109.993713,580.747115 106.895077,578.208324 105.523667,574.794528 C105.065732,575.941774 104.403562,577.007587 103.557102,577.945663 Z M115.473768,581.445682 C116.194975,585.733684 119.931049,589.010161 124.417849,589.010161 C128.946932,589.010161 132.711727,585.670613 133.381875,581.323532 C129.64261,580.747115 126.543175,578.204332 125.173361,574.788141 C123.625639,578.649818 119.867226,581.393788 115.473768,581.445682 Z M126.036576,590.399311 C126.651676,594.344018 129.842856,597.511918 133.863744,598.016483 C135.036503,594.965143 136.286647,591.691859 137.571895,588.291636 C136.072838,587.123632 134.932789,585.591575 134.243494,583.865517 C132.87368,587.280909 129.775044,589.822894 126.036576,590.399311 Z M110.662265,596.783013 C112.072767,597.636462 113.687504,598.087537 115.347716,598.087537 C119.834516,598.087537 123.569793,594.810261 124.291798,590.522259 C119.901531,590.471164 116.144714,587.729589 114.594598,583.871904 C113.454548,586.731636 111.098659,589.00617 108.072622,589.996138 C108.961366,592.338532 109.829367,594.611469 110.662265,596.783013 Z M113.753721,604.790584 C113.766486,604.824914 113.779251,604.857646 113.792016,604.891976 C115.391595,603.48127 116.425537,601.588354 116.749442,599.507024 C114.996686,599.742541 113.125059,599.520597 111.46006,598.86115 C111.938738,600.104199 112.40465,601.310524 112.852213,602.465754 L113.05246,602.418651 C113.275044,603.208231 113.508798,603.999407 113.753721,604.790584 Z M127.33379,607.163316 L127.441493,607.163316 L127.441493,607.164114 C128.333428,607.164114 129.212598,607.033981 130.05507,606.780102 C130.893552,604.777012 131.799848,602.799469 132.76518,600.867433 C132.943088,600.40598 133.124188,599.93814 133.306085,599.463913 C129.593944,598.862746 126.536793,596.310383 125.17735,592.932514 C123.992624,595.895235 121.506695,598.201703 118.431992,599.141375 C118.951357,603.616194 122.736895,607.109027 127.33379,607.163316 Z M127.565151,608.675413 C127.707956,609.533652 127.972027,610.361554 128.351777,611.13836 C128.672491,610.256968 129.006767,609.377972 129.35301,608.502967 C128.765833,608.610746 128.168284,608.669026 127.565151,608.675413 Z M114.371215,606.378526 C116.131949,610.89965 117.494583,614.353364 118.203025,616.140896 C122.125784,615.554898 125.21724,612.428513 125.821969,608.552466 C122.08749,607.976048 118.990449,605.438854 117.619039,602.027453 C116.9457,603.711997 115.839956,605.210522 114.371215,606.378526 Z M120.780701,616.99674 L125.749369,616.99674 C126.054925,616.99674 126.335749,616.867405 126.528017,616.651049 C126.826393,615.501408 127.213323,614.341388 127.683225,613.006527 C127.281136,612.399772 126.945264,611.760284 126.678801,611.093652 C125.600979,613.762576 123.463686,615.916556 120.780701,616.99674 Z M122.246251,633.696876 C122.363527,634.316405 122.452082,634.957489 122.499152,635.613743 C122.547817,634.957489 122.635575,634.316405 122.753648,633.696077 C122.779976,633.389506 122.811888,633.085331 122.849384,632.786743 L122.945917,632.798719 C123.583355,630.148157 124.6891,627.982201 125.296222,626.920379 C124.590173,623.201609 125.766921,619.876432 126.008653,619.251314 C126.044553,618.99025 126.084443,618.734774 126.128322,618.481693 C126.004664,618.500056 125.877814,618.509636 125.749369,618.509636 L119.249732,618.509636 C119.09496,618.509636 118.941783,618.496064 118.794191,618.469718 C118.858015,618.703638 118.917849,618.945542 118.973695,619.198622 C119.252923,619.803781 120.665021,623.144127 119.783457,627.061689 C120.403344,628.166622 121.443669,630.259928 122.053184,632.798719 L122.150515,632.786743 C122.188012,633.086129 122.219924,633.388708 122.246251,633.696876 Z M120.152836,644.086758 C119.789042,644.572961 119.376582,645.05118 118.910669,645.517423 C111.312468,653.121022 85.4982109,675.898289 73.4794271,684.918981 C62.1930192,693.3904 43.5134437,727.90758 60.055726,753.490291 C66.8098597,763.936857 74.2748288,772.581521 80.8614255,780.208272 C90.4190114,791.275964 97.9685468,800.018028 97.9685468,808.36091 C97.9685468,816.941705 97.8831827,821.707128 97.8209547,824.047925 C102.476887,819.428602 105.380064,813.752249 104.030194,806.995712 C102.094743,797.316371 96.1033017,785.644319 90.30732,774.357876 C82.4969056,759.145089 74.4200276,743.414963 75.294411,731.156115 C76.326758,716.701771 91.8295132,696.12 103.149428,681.091634 C108.545715,673.927134 113.206434,667.739828 114.657623,664.350782 C114.704693,664.228633 118.549268,654.128555 120.152836,644.086758 Z M124.845467,644.086758 C126.449833,654.13095 130.297599,664.236616 130.351052,664.377128 C131.792667,667.739828 136.453387,673.927134 141.849673,681.090836 C153.169588,696.12 168.672344,716.701771 169.703893,731.156115 C170.579074,743.414963 162.502196,759.145089 154.691781,774.357876 C148.8958,785.644319 142.904358,797.316371 140.968907,806.995712 C139.61824,813.752249 142.522214,819.429401 147.178147,824.047925 C147.115919,821.707128 147.030555,816.942503 147.030555,808.36091 C147.030555,800.018028 154.58009,791.275964 164.138474,780.207474 C170.72507,772.580722 178.189242,763.936857 184.943375,753.490291 C201.48486,727.908378 182.806082,693.3904 171.520472,684.918981 C159.502486,675.899886 133.687431,653.121821 126.087634,645.517423 C125.621722,645.05118 125.209262,644.572961 124.845467,644.086758 Z M148.737038,825.500145 C150.947729,827.440963 153.448817,829.175804 156.023302,830.706264 C155.985007,829.641249 156.014526,828.393409 156.046438,827.011444 C156.071967,825.927269 156.100688,824.748088 156.100688,823.489071 C156.100688,810.403919 168.417847,796.383884 186.913132,779.358815 C194.257634,772.598286 200.41741,764.909262 205.221732,756.504906 C218.416466,733.424261 221.194389,715.069919 213.714262,700.392833 C207.337485,687.879307 194.517715,680.231798 184.216584,674.086806 L182.166251,672.86132 C158.525187,658.666445 133.391449,639.15368 127.544408,631.839886 C126.80565,630.916181 126.269532,629.95176 125.888983,628.985742 C125.334516,630.109835 124.695482,631.647481 124.301371,633.394297 C124.099529,635.296793 124.118676,637.385308 124.291798,639.551264 C124.736169,641.235808 125.621722,642.91157 127.15668,644.447618 C134.729351,652.024871 160.45266,674.721504 172.426767,683.709463 C178.07037,687.943975 186.060289,698.806488 190.270254,712.647689 C193.609026,723.62836 195.616279,739.769642 186.213465,754.311805 C179.40189,764.84699 171.900223,773.53237 165.281714,781.196645 C155.92996,792.026425 148.542376,800.580873 148.542376,808.36091 C148.542376,819.591468 148.688373,824.254701 148.737038,825.500145 Z M119.130063,629.071965 C118.733559,629.991678 118.188665,630.923366 117.455491,631.839886 C111.607653,639.15368 86.4739144,658.666445 62.8328509,672.86132 L60.7833152,674.086008 C50.4821843,680.231 37.6624142,687.879307 31.2848398,700.392833 C23.8047125,715.069121 26.5826352,733.423463 39.7773691,756.504906 C44.5808936,764.909262 50.7414677,772.598286 58.0859698,779.358815 C76.5812546,796.383884 88.8984138,810.403919 88.8984138,823.489071 L88.8984138,830.75177 C91.5008216,829.210133 94.0290344,827.460124 96.262063,825.500145 C96.3107285,824.254701 96.4575228,819.591468 96.4575228,808.36091 C96.4575228,800.581671 89.0699398,792.027223 79.7173873,781.197443 C73.0996766,773.533168 65.5972111,764.84699 58.7856362,754.311805 C49.3828226,739.768844 51.3900752,723.62836 54.7288478,712.647689 C58.9388128,698.806488 66.929529,687.943975 72.572334,683.709463 C84.5480369,674.720706 110.270548,652.024073 117.842422,644.447618 C119.418865,642.870055 120.301226,641.132819 120.720866,639.38281 C120.870054,637.427621 120.892392,635.539495 120.736822,633.795074 C120.366645,631.930101 119.706071,630.274298 119.130063,629.071965 Z M113.811163,609.73484 C114.018589,615.151726 113.475291,622.214036 109.840536,625.851373 C103.7023,631.99397 70.1239007,654.825525 47.6077284,663.838234 C29.8719446,670.938067 8.77265645,681.53233 2.99103505,700.602004 C-0.946881778,713.587361 2.99023725,728.831285 14.6930942,745.909844 C27.9253244,761.448363 40.4882046,773.897221 50.5811109,783.899898 C67.2829522,800.451538 78.3172568,811.385904 78.3172568,821.975377 C78.3172568,830.378935 76.0658789,835.070908 73.7315304,837.679157 C77.3942079,836.391399 82.4434533,834.375535 87.3873898,831.620388 L87.3873898,823.489071 C87.3873898,812.620172 78.8844892,800.560116 57.0623986,780.47253 C49.6030141,773.605819 43.3467045,765.795444 38.4649961,757.256963 C7.93576934,703.851337 39.2731625,685.156893 60.0094539,672.787073 L62.0557984,671.563982 C85.5652257,657.447346 110.505897,638.110221 116.274754,630.894625 C117.234502,629.694687 117.824072,628.466008 118.163135,627.282836 C118.077771,627.144719 118.02751,627.067278 118.021128,627.059294 L118.266849,626.894033 C119.177931,623.148119 117.662918,619.956268 117.575958,619.778233 L117.515326,619.604989 C117.216152,618.224621 116.808479,617.254611 116.131949,615.649105 C115.73704,614.71103 115.246396,613.545421 114.642465,611.972648 C114.356057,611.230172 114.079222,610.483703 113.811163,609.73484 Z M157.595756,831.611606 C162.543681,834.371543 167.601702,836.390601 171.268369,837.679157 C168.93402,835.070908 166.682642,830.378935 166.682642,821.975377 C166.682642,811.385904 177.716149,800.45074 194.418788,783.8991 C204.512493,773.896423 217.073777,761.448363 230.354673,745.847572 C242.008864,728.831285 245.945983,713.587361 242.008864,700.602802 C236.225647,681.53233 215.127157,670.938067 197.391373,663.838234 C174.875999,654.825525 141.296801,631.99397 135.158565,625.851373 C131.295641,621.985704 131.219053,613.709884 131.76634,607.754104 C131.7448,607.763684 131.724855,607.772466 131.704112,607.782046 C130.035923,612.060468 128.761046,615.286649 128.120416,616.903332 C128.064571,617.043843 127.997556,617.177968 127.92017,617.303311 C127.739868,618.034611 127.598658,618.762717 127.494147,619.54591 L127.443886,619.732727 C127.424739,619.779032 126.04216,623.247914 126.871867,626.987442 L126.978772,627.059294 C126.966805,627.07606 126.944466,627.11039 126.912555,627.159888 C127.214919,628.419703 127.773376,629.705066 128.724347,630.894625 C134.493204,638.110221 159.433078,657.447346 182.944101,671.563982 L184.990445,672.787073 C205.726737,685.157692 237.063332,703.852135 206.533308,757.256963 C201.652397,765.795444 195.39529,773.605819 187.936703,780.47253 C166.113815,800.560116 157.611712,812.620172 157.611712,823.489071 C157.611712,824.760064 157.583789,825.952816 157.558259,827.046572 C157.515178,828.867636 157.47848,830.447594 157.595756,831.611606 Z M176.383034,840.875 C176.31921,840.863823 176.023228,840.809534 175.572474,840.654652 C173.029103,839.926546 164.413713,837.275186 156.293754,832.655065 C143.373462,825.303748 137.562322,816.328563 139.486604,806.699519 C141.462742,796.813403 147.504445,785.045548 153.346699,773.665696 C161.062176,758.638927 169.040925,743.09961 168.19606,731.263894 C167.196423,717.255036 151.849237,696.88004 140.642609,682.001767 C134.962308,674.46044 130.47471,668.503861 128.950921,664.94636 C128.684458,664.254978 123.649572,651.028516 122.771998,639.599964 C122.633979,638.990016 122.546222,638.380067 122.499152,637.775707 C122.453678,638.380067 122.365122,638.989217 122.227901,639.599166 C121.349529,651.026919 116.315442,664.250188 116.057754,664.920014 C114.523594,668.503861 110.036794,674.461238 104.356492,682.002565 C93.1498641,696.88004 77.8034768,717.255036 76.8030417,731.263894 C75.9581766,743.09961 83.9369258,758.638927 91.6516049,773.665696 C97.4946565,785.045548 103.536359,796.813403 105.5117,806.699519 C107.43678,816.328563 101.624842,825.303748 88.7053474,832.655065 C80.5861862,837.275186 71.9699987,839.925748 69.4266278,840.654652 C68.9758735,840.809534 68.6790937,840.863823 68.6144723,840.875 L68.3009388,839.396434 C68.331255,839.389248 68.5857517,839.321388 69.0309214,839.19365 C71.0333872,838.473527 76.805435,835.247346 76.805435,821.975377 C76.805435,812.017408 65.9498365,801.258682 49.51765,784.974493 C39.404001,774.951857 26.8163892,762.47825 13.4948059,746.82796 C1.4712353,729.288746 -2.53369632,713.609715 1.54383466,700.162905 C7.51373571,680.476895 28.9967633,669.658292 47.0460806,662.433116 C69.4018961,653.484277 102.694685,630.862691 108.771491,624.781568 C113.630861,619.918745 112.265036,607.442742 111.740884,603.783051 C106.323855,589.80533 98.2054919,568.411624 93.1235369,552.940168 C77.2833143,504.713516 73.9884204,462.915275 73.4339528,442.292787 C72.6217973,412.039659 75.6797461,381.438445 82.5232328,351.338602 L82.7737405,351.395285 C80.0580458,342.65881 83.6010541,334.557033 92.3026057,329.668663 L97.8887673,325.902789 C97.4882741,325.680046 97.0494868,325.434151 96.7439312,325.263301 C96.5101773,325.13237 96.2692431,325.015809 96.0219266,324.913619 C76.6011995,316.867727 62.8759318,308.159195 57.3767299,300.391931 C55.3471391,297.525812 54.8397414,293.751955 56.0204782,290.298241 C63.1759028,269.372375 77.4763808,234.267601 92.8538821,234.267601 C109.700124,234.267601 111.619619,223.749182 111.750458,222.869387 L111.750458,215.977128 C110.697368,214.979974 109.691349,213.930128 108.731601,212.829985 C105.976017,209.670069 103.664804,206.141309 101.860989,202.340308 C101.280992,201.119612 100.987404,199.789541 100.987404,198.386819 L100.987404,175.26945 L102.79441,175.26945 C102.332486,174.942122 101.901677,174.566093 101.511555,174.144558 C100.61244,173.174548 99.9861707,172.035286 99.6726372,170.841734 C96.5045927,170.246156 76.7312401,165.554183 70.8116001,140.674829 C68.935186,144.868625 67.4632539,149.007333 66.4205357,152.935274 C72.5340398,177.23342 100.014891,179.78738 100.292524,179.810533 L100.168866,181.31784 C99.8912331,181.295486 73.3071033,178.843716 65.7081046,155.896398 C65.2134716,158.190092 64.8768021,160.393571 64.7036805,162.474103 C64.1930916,168.604724 63.338653,178.864474 83.7973117,186.800192 C84.3581617,187.017346 84.8926844,187.22492 85.3944975,187.426108 C92.803621,190.391224 100.303693,191.909708 100.378686,191.924079 L100.082704,193.408234 C100.006116,193.393065 92.3696205,191.846638 84.8336476,188.830426 C84.3358234,188.630836 83.8060874,188.425657 83.250822,188.210099 C75.205058,185.089302 61.738276,179.86562 63.1966455,162.34876 C64.7196364,144.063876 78.585316,116.461309 101.285779,101.296423 C104.478555,98.5588402 107.475074,96.0927001 110.120562,93.9171638 C122.039622,84.1108837 128.606274,78.7091666 129.191057,69.0545753 C129.509378,63.8013536 127.000312,58.5912434 122.642755,55.4568743 C115.504084,50.3234068 108.327119,47.1754656 101.995019,44.3987627 C98.0116277,42.6519467 94.2500236,41.0017325 90.7859971,39.0209965 C85.3171114,35.8938126 83.2077411,30.5926892 82.401968,26.6958844 C81.0241758,20.0335538 82.4785563,12.3820527 86.0215645,7.65574981 C90.5418718,1.62412514 96.7319643,-6.63572778 124.784835,8.96107163 L124.856636,9.0057799 C124.897324,9.03531929 129.089738,11.9621143 133.86135,11.006475 C136.975145,10.3829543 139.685255,8.25531965 141.916688,4.68264984 L143.199542,5.48420526 C140.734355,9.43130683 137.686778,11.7888697 134.141376,12.493025 C128.912627,13.5316939 124.498426,10.5993104 124.01576,10.2639984 C97.1428288,-4.66776553 91.4154575,2.98054212 87.2302242,8.56348737 C83.9329368,12.9632602 82.5870564,20.1261638 83.881878,26.3893134 C84.625423,29.9811439 86.5560873,34.8607322 91.5359246,37.707691 C94.2093361,39.2373526 97.0901743,40.5754072 100.1202,41.9206471 C115.336547,44.538476 137.267138,55.5231383 137.267138,68.6194681 C137.267138,76.896885 129.382528,90.0475033 121.0344,103.970138 C117.078134,110.569398 112.987838,117.392997 109.976959,123.417437 C102.439391,138.502486 113.108305,156.037709 116.312251,160.740061 C116.794119,159.478649 117.516123,158.11345 118.601125,156.844054 C117.782587,153.935621 113.41067,137.187584 117.663715,125.839667 C120.892392,117.223745 126.286285,108.04338 131.999296,98.3241218 C134.29216,94.4233252 136.662409,90.3884039 138.873897,86.4061744 C146.464918,72.7310322 153.636298,59.8151323 139.145945,51.1153819 C124.612511,42.3892856 109.889202,36.3927889 109.056304,36.0558801 C107.668938,35.7038025 94.910598,32.0960047 93.4330814,18.7817222 C92.6600179,11.8239976 95.3374184,8.73992536 97.7188369,7.37871821 C101.908059,4.98443066 107.826901,6.43505436 111.266196,9.01695697 L110.359901,10.2272737 C107.305143,7.93437814 102.097137,6.61708089 98.4679666,8.69282201 C95.6174445,10.3222788 94.3952223,13.7536385 94.9353297,18.6148645 C96.3681697,31.516394 108.931848,34.4807119 109.465573,34.6004662 C109.698529,34.6387876 136.979134,39.2820608 152.061451,49.8467847 C161.335022,56.3430561 172.530481,66.7153748 173.208607,79.2424724 C173.639416,87.21252 169.683948,94.9502441 161.452297,102.244877 C161.445915,102.723096 161.426768,103.65718 161.36454,104.879472 C162.427203,105.724139 164.759956,108.653329 165.983774,118.446835 C166.186414,120.070703 166.203965,121.641081 166.065149,123.162759 C169.103951,124.558296 171.018659,129.419522 171.757417,137.626683 C171.816454,138.283735 171.828421,138.940787 171.796509,139.593049 C173.348221,140.88879 174.334296,142.751369 174.807388,145.274192 C175.033164,146.47413 175.1289,147.678859 175.102572,148.87241 C175.175172,149.765777 176.517861,167.273056 171.885065,173.453975 C167.587342,179.188609 148.096409,188.572555 144.825449,190.121378 L144.825449,198.386819 C144.825449,199.789541 144.53186,201.119612 143.951065,202.340308 C142.147251,206.141309 139.836038,209.670069 137.081251,212.829985 C136.2316,213.803189 135.346845,214.736474 134.425391,215.629841 L134.425391,222.11254 C134.553836,222.981956 136.466949,233.510754 153.321169,233.510754 C168.659579,233.510754 179.912479,267.180073 185.958171,285.267762 C186.304414,286.302439 186.63151,287.280432 186.938661,288.190565 C187.309636,289.290708 187.471588,290.426777 187.420529,291.569233 C187.210709,296.265996 184.361783,307.447854 162.53331,309.894834 L146.764091,314.16607 C146.68112,315.040276 146.610914,315.906499 146.555069,316.762343 C146.492043,317.726765 146.44258,318.692782 146.407477,319.659599 L148.823998,323.892514 C150.670096,327.125082 152.986095,329.81636 155.707375,331.892101 C160.989576,335.921434 163.768297,342.314716 162.959333,348.577866 C162.83727,349.528715 162.633034,350.460404 162.350615,351.367343 L162.475869,351.338602 C169.319355,381.43605 172.377304,412.038062 171.564351,442.292787 C171.010681,462.916872 167.715787,504.715113 151.875565,552.940168 C147.087198,567.517459 139.60388,587.351165 134.223549,601.287372 C134.084733,601.960391 130.6231,619.174672 136.226813,624.781568 C142.304416,630.862691 175.597205,653.484277 197.953021,662.433116 C216.002338,669.658292 237.485366,680.476895 243.455267,700.162905 C247.532798,713.609715 243.528664,729.288746 231.552961,746.765688 C218.182712,762.477451 205.596696,774.951059 195.483047,784.973695 C179.050063,801.258682 168.194464,812.01661 168.194464,821.975377 C168.194464,835.256927 173.97449,838.478317 175.97536,839.195246 C176.414148,839.322186 176.667846,839.389248 176.698163,839.396434 L176.383034,840.875 Z" id="Fill-1" fill="url(#linearGradient-3)" mask="url(#mask-2)"></path>
            </g>
        </g>
    </g>
</svg>