<?xml version="1.0" encoding="UTF-8"?>
<svg width="187px" height="224px" viewBox="0 0 187 224" version="1.1" xmlns="http://www.w3.org/2000/svg" xmlns:xlink="http://www.w3.org/1999/xlink">
    <!-- Generator: Sketch 49.1 (51147) - http://www.bohemiancoding.com/sketch -->
    <title>stickers-icon</title>
    <desc>Created with Sketch.</desc>
    <defs>
        <linearGradient x1="50%" y1="-2.48949813e-15%" x2="50%" y2="100%" id="linearGradient-1">
            <stop stop-color="#00B791" offset="0%"></stop>
            <stop stop-color="#FD00D8" offset="100%"></stop>
        </linearGradient>
    </defs>
    <g id="White-Walls" stroke="none" stroke-width="1" fill="none" fill-rule="evenodd">
        <g id="Desktop-HD-Copy-2" transform="translate(-534.000000, -449.000000)">
            <g id="stickers-icon" transform="translate(536.000000, 451.000000)">
                <g id="Logo-Copy-2" transform="translate(50.000000, 199.000000)" fill="#06B393" font-family="Gotham-Bold, Gotham" font-size="18" font-weight="bold" letter-spacing="-0.624929667" line-spacing="30">
                    <text id="STICKERS">
                        <tspan x="0" y="17">STICKERS</tspan>
                    </text>
                </g>
                <circle id="Oval-5-Copy" stroke="url(#linearGradient-1)" stroke-width="3" cx="91.5" cy="91.5" r="91.5"></circle>
                <g id="whale" transform="translate(52.000000, 57.000000)" fill="#06B393" fill-rule="nonzero">
                    <path d="M62.877193,23.7499512 C64.4183392,23.7499512 65.6717895,22.6287598 65.6717895,21.2499023 C65.6717895,19.8711914 64.4185029,18.7498535 62.877193,18.7498535 C61.3360468,18.7498535 60.0825965,19.8710449 60.0825965,21.2499023 C60.0825965,22.6287598 61.3360468,23.7499512 62.877193,23.7499512 Z" id="Shape"></path>
                    <path d="M68.4662222,12.4999512 C70.7772865,12.4999512 72.6580351,10.8174316 72.6580351,8.74995117 C72.6580351,6.6824707 70.7772865,4.99995117 68.4662222,4.99995117 C66.1551579,4.99995117 64.2744094,6.6824707 64.2744094,8.74995117 C64.2744094,10.8174316 66.1551579,12.4999512 68.4662222,12.4999512 Z M68.4662222,7.5 C69.2374503,7.5 69.8634386,8.06118164 69.8634386,8.74995117 C69.8634386,9.4387207 69.2374503,9.99990234 68.4662222,9.99990234 C67.6949942,9.99990234 67.0690058,9.4387207 67.0690058,8.74995117 C67.0690058,8.06118164 67.6949942,7.5 68.4662222,7.5 Z" id="Shape"></path>
                    <path d="M64.2744094,30.6250488 C64.2744094,31.6587891 65.2147836,32.5000488 66.3703158,32.5000488 C67.525848,32.5000488 68.4662222,31.6587891 68.4662222,30.6250488 C68.4662222,29.5913086 67.525848,28.7500488 66.3703158,28.7500488 C65.2147836,28.7500488 64.2744094,29.5913086 64.2744094,30.6250488 Z" id="Shape"></path>
                    <path d="M78.2472281,37.5 L37.7263158,37.5 C22.9292164,37.5 22.3787135,25.8049805 22.3577544,15 L33.5345029,15 C36.6169591,15 39.1235322,17.2425293 39.1235322,19.9999512 L39.1235322,24.9999023 L33.5345029,24.9999023 C30.4520468,24.9999023 27.9454737,22.757373 27.9454737,19.9999512 L27.9454737,18.75 C27.9454737,18.0600586 27.3209591,17.5000488 26.5482573,17.5000488 C25.7755556,17.5000488 25.1508772,18.0600586 25.1508772,18.75 L25.1508772,19.9999512 C25.1508772,24.1362305 28.9109006,27.4999512 33.5345029,27.4999512 L40.5209123,27.4999512 C41.293614,27.4999512 41.9181287,26.9399414 41.9181287,26.25 L41.9181287,19.9999512 C41.9181287,15.8636719 38.1581053,12.4999512 33.5345029,12.4999512 L22.3562807,12.4999512 L22.3562807,7.5 C22.3562807,3.3637207 18.5962573,0 13.972655,0 L6.98640936,0 C6.2137076,0 5.58919298,0.560009766 5.58919298,1.24995117 L5.58919298,7.5 C5.58919298,9.4237793 6.51139181,11.9424316 9.0977076,13.2388184 C9.77396491,13.575 10.623462,13.3612793 10.9994152,12.7587891 C11.378152,12.1574707 11.1377778,11.3950195 10.4643041,11.0575195 C8.93134503,10.2887695 8.38362573,8.71625977 8.38362573,7.5 L8.38362573,2.50004883 L13.972655,2.50004883 C17.0551111,2.50004883 19.5616842,4.74257812 19.5616842,7.5 L19.5616842,12.5875488 C12.0431111,13.4762695 0,21.3262207 0,38.7499512 C0,52.3100098 9.21642105,64.8987305 21.9148304,68.6862305 C22.0615439,68.7300293 22.209731,68.7499512 22.3564444,68.7499512 C22.9419883,68.7499512 23.486924,68.41875 23.6811228,67.8949219 C23.9255906,67.2411621 23.530152,66.5324707 22.7980585,66.313623 C11.2060585,62.8574707 2.79459649,51.2649902 2.79459649,38.7499512 C2.79459649,23.1298828 13.036538,16.0211426 19.5633216,15.1100098 C19.5926316,26.0274902 20.2926316,40.0000488 37.7264795,40.0000488 L78.2473918,40.0000488 C79.7872281,40.0000488 81.0419883,41.1212402 81.0419883,42.5000977 L81.0419883,43.7500488 C81.0419883,46.1862305 80.701076,48.6049805 80.0276023,50.9387695 C79.8361871,51.6074707 80.286152,52.2887695 81.0321637,52.4613281 C81.1495673,52.4875488 81.2669708,52.5001465 81.3829006,52.5001465 C82.0046316,52.5001465 82.5733099,52.1264648 82.7354152,51.5626465 C83.4647251,49.0250977 83.8364211,46.3964355 83.8364211,43.7501953 L83.8364211,42.5002441 C83.8362573,39.7425293 81.3295205,37.5 78.2472281,37.5 Z" id="Shape"></path>
                    <path d="M79.6444444,55.0000488 L57.2881637,55.0000488 C47.2626901,55.0000488 45.0942456,59.9625 44.7937778,60.8274902 C44.3465965,61.7525391 39.4115556,71.3975098 27.2538246,72.4136719 L32.0380585,61.7148926 C32.3244444,61.0724121 31.9751813,60.3461426 31.2583158,60.088623 C30.5457076,59.8349121 29.7283041,60.144873 29.4419181,60.7848633 L23.8528889,73.2848145 C23.6809591,73.6697754 23.7341754,74.1073242 23.9940351,74.4498047 C24.2538947,74.7936035 24.6869942,74.9998535 25.1510409,74.9998535 C41.0966316,74.9998535 47.3411228,61.8585937 47.4025263,61.7261719 C47.4277427,61.6699219 47.4487018,61.6123535 47.4654035,61.5536133 C47.4737544,61.5285645 47.9446784,60.0011719 50.3019181,58.8285645 L50.3019181,68.7498047 C50.3019181,69.4397461 50.9264327,69.9997559 51.6991345,69.9997559 C52.4718363,69.9997559 53.0963509,69.4397461 53.0963509,68.7498047 L53.0963509,57.8935547 C54.2505731,57.6522949 55.6281404,57.4998047 57.2881637,57.4998047 L58.6853801,57.4998047 L58.6853801,66.8748047 C58.6853801,67.5647461 59.3098947,68.1247559 60.0825965,68.1247559 C60.8552982,68.1247559 61.4798129,67.5647461 61.4798129,66.8748047 L61.4798129,57.4998047 L67.0690058,57.4998047 L67.0690058,61.2498047 C67.0690058,61.9397461 67.6935205,62.4997559 68.4662222,62.4997559 C69.238924,62.4997559 69.8634386,61.9397461 69.8634386,61.2498047 L69.8634386,57.4998047 L77.3960936,57.4998047 C71.8656842,66.6723633 60.9152281,72.4998047 48.9043743,72.4998047 L40.5207485,72.4998047 C39.7480468,72.4998047 39.1235322,73.0598145 39.1235322,73.7497559 C39.1235322,74.4396973 39.7480468,74.999707 40.5207485,74.999707 L48.9043743,74.999707 C62.763883,74.999707 75.3309708,67.8410156 80.9172164,56.7634277 C81.1128889,56.3771484 81.0750643,55.9284668 80.8179883,55.5722168 C80.561076,55.2149414 80.119462,55.0000488 79.6444444,55.0000488 Z" id="Shape"></path>
                    <path d="M64.3163275,48.75 C64.3163275,48.0600586 63.6903392,47.5000488 62.9191111,47.5000488 L62.9037193,47.5000488 C62.1338012,47.5000488 61.5148538,48.0600586 61.5148538,48.75 C61.5148538,49.4399414 62.1464094,49.9999512 62.9191111,49.9999512 C63.6903392,49.9999512 64.3163275,49.4399414 64.3163275,48.75 Z" id="Shape"></path>
                </g>
            </g>
        </g>
    </g>
</svg>