<?xml version="1.0" encoding="UTF-8"?>
<svg width="187px" height="224px" viewBox="0 0 187 224" version="1.1" xmlns="http://www.w3.org/2000/svg" xmlns:xlink="http://www.w3.org/1999/xlink">
    <!-- Generator: Sketch 49.1 (51147) - http://www.bohemiancoding.com/sketch -->
    <title>trivia-icon</title>
    <desc>Created with Sketch.</desc>
    <defs>
        <linearGradient x1="50%" y1="-2.48949813e-15%" x2="50%" y2="100%" id="linearGradient-1">
            <stop stop-color="#00B791" offset="0%"></stop>
            <stop stop-color="#FD00D8" offset="100%"></stop>
        </linearGradient>
    </defs>
    <g id="White-Walls" stroke="none" stroke-width="1" fill="none" fill-rule="evenodd">
        <g id="Desktop-HD-Copy-2" transform="translate(-740.000000, -449.000000)">
            <g id="trivia-icon" transform="translate(742.000000, 451.000000)">
                <g id="Logo-Copy-3" transform="translate(64.000000, 199.000000)" fill="#06B393" font-family="Gotham-Bold, Gotham" font-size="18" font-weight="bold" letter-spacing="-0.624929667" line-spacing="30">
                    <text id="TRIVIA">
                        <tspan x="0" y="17">TRIVIA</tspan>
                    </text>
                </g>
                <circle id="Oval-5-Copy-2" stroke="url(#linearGradient-1)" stroke-width="3" cx="91.5" cy="91.5" r="91.5"></circle>
                <g id="captain" transform="translate(52.000000, 54.000000)" fill="#06B393" fill-rule="nonzero">
                    <path d="M31.3333333,35 C30.5973671,35 30,35.5973671 30,36.3333333 C30,37.0692996 30.5973671,37.6666667 31.3333333,37.6666667 L32.6666667,37.6666667 C32.6666667,38.4026329 33.2640338,39 34,39 C34.7359662,39 35.3333333,38.4026329 35.3333333,37.6666667 L36.6666667,37.6666667 C37.4026329,37.6666667 38,37.0692996 38,36.3333333 C38,35.5973671 37.4026329,35 36.6666667,35 L31.3333333,35 Z" id="Shape"></path>
                    <path d="M44.3333333,35 C43.5973671,35 43,35.5973671 43,36.3333333 C43,37.0692996 43.5973671,37.6666667 44.3333333,37.6666667 L45.6666667,37.6666667 C45.6666667,38.4026329 46.2640338,39 47,39 C47.7359662,39 48.3333333,38.4026329 48.3333333,37.6666667 L49.6666667,37.6666667 C50.4026329,37.6666667 51,37.0692996 51,36.3333333 C51,35.5973671 50.4026329,35 49.6666667,35 L44.3333333,35 Z" id="Shape"></path>
                    <path d="M59.2680141,39.7865625 C59.9574276,39.5532812 60.5553497,39.131875 61.0203652,38.5932812 C61.5806514,38.4332812 62,37.94125 62,37.3332812 L62,33.3332812 C62,32.5973437 61.3979836,32 60.6562894,32 C59.9145951,32 59.3125787,32.5973438 59.3125787,33.3332812 L59.3125787,36 C59.3125787,36.7346875 58.7093026,37.3332812 57.9688681,37.3332812 C57.2311107,37.3332812 56.6305115,37.9253125 56.6251575,38.6585937 C56.6237402,38.72 56.551303,44.92125 54.1566226,48.5426562 C52.636858,49.8773437 50.42768,49.729375 49.3163984,49.54125 C48.2964506,46.18125 45.7822489,42.6665625 40.5,42.6665625 C35.2177511,42.6665625 32.7035494,46.18125 31.6836016,49.54125 C30.5897995,49.7265625 28.439831,49.870625 26.9240032,48.610625 C26.9213261,48.6065625 26.9199089,48.5985937 26.9159721,48.5932812 C24.4864903,44.9773437 24.3748425,38.7132812 24.3748425,38.6492187 C24.3653942,37.9198437 23.7660548,37.3332812 23.0311319,37.3332812 C22.2906974,37.3332812 21.6874213,36.7346875 21.6874213,36 L21.6874213,33.3332812 C21.6874213,32.5973437 21.0854049,32 20.3437106,32 C19.6020164,32 19,32.5973438 19,33.3332812 L19,36 C19,37.7573438 20.1475002,39.2532813 21.7385997,39.789375 C21.8811121,41.869375 22.4198247,46.4279688 24.4502717,49.7134375 C24.4529488,49.7228125 24.451689,49.729375 24.454366,49.73875 C24.4798765,52.2146875 25.0724446,56.43875 28.3499143,59.74 C31.1584317,62.5667187 35.2460962,64 40.5001575,64 C45.7354796,64 49.8165302,62.5759375 52.6263074,59.7667187 C55.9266106,56.468125 56.5434294,52.2107812 56.5850021,49.7253125 C58.6176537,46.4385938 59.1363673,41.8746875 59.2680141,39.7865625 Z M50.7190036,57.8879688 C48.430617,60.1732813 44.9931555,61.3332813 40.4996851,61.3332813 C35.9914123,61.3332813 32.5485967,60.1665625 30.2643043,57.8679688 C28.4193596,56.009375 27.6466433,53.7532813 27.3348482,51.86125 C28.3385763,52.211875 29.3545872,52.3332813 30.2507617,52.3332813 C30.5691706,52.3332813 30.8649035,52.3159375 31.1470937,52.2932813 C31.1148119,52.6573438 31.0933957,53.011875 31.0933957,53.3332813 C31.0933957,54.0679688 31.692735,54.6639063 32.4344293,54.6653125 L32.4371063,54.6653125 C33.1761235,54.6653125 33.7781399,54.070625 33.780817,53.3359375 C33.7822342,53.0092188 33.8937245,45.3332813 40.4996851,45.3332813 C47.1056456,45.3332813 47.2171359,53.0092188 47.2185532,53.3332813 C47.2185532,54.0692188 47.8205695,54.6665625 48.5622638,54.6665625 C49.303958,54.6665625 49.9059744,54.0692188 49.9059744,53.3332813 C49.9059744,53.011875 49.8844007,52.6573438 49.8522764,52.2932813 C50.1344666,52.3159375 50.430042,52.3332813 50.7471911,52.3332813 C51.6515542,52.3332813 52.676856,52.2092188 53.6887726,51.851875 C53.366112,53.7573438 52.5787508,56.029375 50.7190036,57.8879688 Z" id="Shape"></path>
                    <path d="M80.9302789,78.245034 L79.5803748,74.2451115 C77.9860547,69.5278591 74.4519098,64.1226513 61.2020306,64.0026536 L56.1599418,60.2667885 C55.5632187,59.8241408 54.7181246,59.9453885 54.2699495,60.5335021 C53.8230399,61.1228656 53.9432705,61.958787 54.5399936,62.4001847 L59.9397682,66.4001072 C60.1732686,66.5733851 60.4581833,66.6668208 60.7497423,66.6668208 C74.1723738,66.6668208 76.0946386,72.3546793 77.0180407,75.0880639 L78.3679448,79.0879864 C78.5569915,79.6465693 79.0834747,80 79.6490328,80 C79.7893544,80 79.9339475,79.9787504 80.0756929,79.9320326 C80.7829965,79.6982871 81.1664686,78.9423642 80.9302789,78.245034 Z" id="Shape"></path>
                    <path d="M40.5024367,13 C43.7308059,13 45.4199451,11.4520313 45.6014482,11.2759375 C46.1324172,10.76125 46.1309665,9.93734375 45.6083794,9.41453125 C45.087082,8.891875 44.2205095,8.8771875 43.6716481,9.3759375 C43.6400543,9.4053125 43.0499275,9.9265625 41.8778948,10.1879687 L41.8778948,6.33328125 C41.8778948,5.59734375 41.2616547,5 40.5024367,5 C39.7432187,5 39.1269786,5.59734375 39.1269786,6.33328125 L39.1269786,10.1865625 C37.97848,9.930625 37.3869025,9.42390625 37.334676,9.3771875 C36.7969369,8.86921875 35.935845,8.87453125 35.4034252,9.39046875 C34.8655249,9.911875 34.8655249,10.7545313 35.4034252,11.2757813 C35.5849283,11.4520313 37.2740676,13 40.5024367,13 Z" id="Shape"></path>
                    <path d="M18.6268116,28.4134595 C18.8766137,28.7798735 19.2977493,29 19.7500509,29 L60.2499491,29 C60.7008269,29 61.1221207,28.7798735 61.3731884,28.4134595 L66.7731221,20.5043546 C67.0066294,20.1615752 67.0634241,19.7332169 66.9270534,19.344404 C66.7906826,18.956827 66.4761756,18.6523573 66.0765555,18.5218262 C65.9037981,18.4665243 63.6856377,17.7664449 59.2415649,17.0915449 C60.2013808,15.463536 60.2499491,13.4507306 60.2499491,13.1817901 C60.2499491,6.61985906 53.9886015,0 40,0 C26.0113985,0 19.7500509,6.61985906 19.7500509,13.1817901 C19.7500509,13.4507306 19.7986192,15.463536 20.7584351,17.0915449 C16.3142041,17.7664449 14.094778,18.4663698 13.9234445,18.5218262 C13.5238244,18.6523573 13.2093174,18.956827 13.0729466,19.344404 C12.9365759,19.7332169 12.9933706,20.1617297 13.2268779,20.5043546 L18.6268116,28.4134595 Z M40,2.63626533 C50.497542,2.63626533 57.5499031,6.8742789 57.5499031,13.1777738 C57.5472137,13.7247687 57.3649641,15.4530317 56.5954661,16.2043967 C56.4496032,16.3468223 56.3524667,16.5167445 56.2876036,16.6946994 C52.2078716,16.2096488 46.8213852,15.8180554 39.9998418,15.8180554 C33.1782984,15.8180554 27.7905463,16.2094943 23.71208,16.6946994 C23.6472169,16.5167445 23.5500804,16.3466679 23.4042175,16.2043967 C22.6347194,15.4530317 22.4524699,13.7249232 22.4497805,13.1817901 C22.4499387,6.8742789 29.502458,2.63626533 40,2.63626533 Z M40,18.4544752 C52.5711051,18.4544752 60.2689334,19.8359425 63.4818726,20.5727869 L59.5277536,26.3635802 L20.4722464,26.3635802 L16.5181274,20.5727869 C19.7310666,19.8359425 27.4287367,18.4544752 40,18.4544752 Z" id="Shape"></path>
                    <path d="M22.6251812,75 L14.3749798,75 C13.6160258,75 13,75.5600152 13,76.2499634 L13,78.7500366 C13,79.4399848 13.6160258,80 14.3749798,80 C15.1339339,80 15.7499597,79.4399848 15.7499597,78.7500366 L15.7499597,77.5000732 L21.2500402,77.5000732 L21.2500402,78.7500366 C21.2500402,79.4399848 21.866066,80 22.62502,80 C23.3839741,80 23.9999999,79.4399848 23.9999999,78.7500366 L23.9999999,76.2499634 C24.0003221,75.5600152 23.3842964,75 22.6251812,75 Z" id="Shape"></path>
                    <path d="M49.942937,64.1757785 L40.9999642,69.1305647 L32.0569914,64.1757785 C31.399735,63.8104587 30.558305,64.0331194 30.181579,64.6717259 C29.804853,65.3103324 30.0330156,66.1250361 30.6930112,66.4903559 L39.625027,71.4398295 L39.625027,78.6666922 C39.625027,79.4026443 40.2410337,80 40.9999642,80 C41.7588947,80 42.3749014,79.4026443 42.3749014,78.6666922 L42.3749014,71.4398295 L51.3069172,66.4903559 C51.9669128,66.1250361 52.1952365,65.3103324 51.8183494,64.6717259 C51.4429124,64.0331194 50.6014825,63.8104587 49.942937,64.1757785 Z" id="Shape"></path>
                    <path d="M41.7500366,48 L39.2499634,48 C38.5600152,48 38,48.672038 38,49.5 C38,50.327962 38.5600152,51 39.2499634,51 L41.7500366,51 C42.4399848,51 43,50.327962 43,49.5 C43,48.672038 42.4399848,48 41.7500366,48 Z" id="Shape"></path>
                    <path d="M47.5037699,72 L47.4888655,72 C46.6629844,72 46,72.672038 46,73.5 C46,74.327962 46.6778888,75 47.5037699,75 C48.3296511,75 49,74.327962 49,73.5 C49,72.672038 48.3298264,72 47.5037699,72 Z" id="Shape"></path>
                    <path d="M24.8401219,60.266768 L19.7980232,64.0026962 C6.54811817,64.1226959 3.01396642,69.5279949 1.41964318,74.2453269 L0.0697364306,78.2453169 C-0.166453746,78.9426589 0.216860921,79.6985945 0.924324063,79.9320314 C1.06606981,79.9787501 1.21050493,80 1.35098509,80 C1.91670248,80 2.44302848,79.6467196 2.63207554,79.087971 L3.98198229,75.087981 C4.90538622,72.3547066 6.8276547,66.6665958 20.2503124,66.6665958 C20.541872,66.6665958 20.8267873,66.5733148 21.0602881,66.3998777 L26.4600733,62.3998877 C27.0567976,61.9586388 27.1768701,61.1225471 26.7301179,60.5331736 C26.2832075,59.9455188 25.4381118,59.8241129 24.8401219,60.266768 Z" id="Shape"></path>
                    <path d="M48.5037699,77 L48.4888655,77 C47.6629844,77 47,77.672038 47,78.5 C47,79.327962 47.6778888,80 48.5037699,80 C49.3296511,80 50,79.327962 50,78.5 C50,77.672038 49.3298264,77 48.5037699,77 Z" id="Shape"></path>
                </g>
            </g>
        </g>
    </g>
</svg>