<svg xmlns="http://www.w3.org/2000/svg" xmlns:xlink="http://www.w3.org/1999/xlink" viewBox="0 0 352.74 218.34"><defs><style>.cls-1{fill:url(#linear-gradient);}.cls-2{fill:url(#linear-gradient-2);}.cls-3{fill:url(#linear-gradient-3);}.cls-4{fill:url(#linear-gradient-4);}.cls-5{fill:url(#linear-gradient-5);}.cls-6{fill:url(#linear-gradient-6);}.cls-7{fill:url(#linear-gradient-7);}.cls-8{fill:url(#linear-gradient-8);}.cls-9{fill:url(#linear-gradient-9);}.cls-10{fill:url(#linear-gradient-10);}.cls-11{fill:url(#linear-gradient-11);}</style><linearGradient id="linear-gradient" x1="325.8" y1="239.57" x2="-34.24" y2="-12.46" gradientUnits="userSpaceOnUse"><stop offset="0" stop-color="#fbc8d4"/><stop offset="1" stop-color="#9795f0"/></linearGradient><linearGradient id="linear-gradient-2" x1="338.78" y1="221.01" x2="-21.25" y2="-31.01" xlink:href="#linear-gradient"/><linearGradient id="linear-gradient-3" x1="358.49" y1="192.86" x2="-1.54" y2="-59.16" xlink:href="#linear-gradient"/><linearGradient id="linear-gradient-4" x1="376.28" y1="167.45" x2="16.25" y2="-84.58" xlink:href="#linear-gradient"/><linearGradient id="linear-gradient-5" x1="396.7" y1="138.27" x2="36.67" y2="-113.75" xlink:href="#linear-gradient"/><linearGradient id="linear-gradient-6" x1="408.32" y1="121.68" x2="48.28" y2="-130.34" xlink:href="#linear-gradient"/><linearGradient id="linear-gradient-7" x1="267.07" y1="323.46" x2="-92.96" y2="71.43" xlink:href="#linear-gradient"/><linearGradient id="linear-gradient-8" x1="283.33" y1="300.24" x2="-76.71" y2="48.22" xlink:href="#linear-gradient"/><linearGradient id="linear-gradient-9" x1="301.92" y1="273.68" x2="-58.11" y2="21.65" xlink:href="#linear-gradient"/><linearGradient id="linear-gradient-10" x1="336.6" y1="224.14" x2="-23.44" y2="-27.89" xlink:href="#linear-gradient"/><linearGradient id="linear-gradient-11" x1="360.54" y1="189.94" x2="0.5" y2="-62.09" xlink:href="#linear-gradient"/></defs><title>trivia</title><g id="Layer_2" data-name="Layer 2"><g id="Layer_1-2" data-name="Layer 1"><path class="cls-1" d="M26.38,25.13H0V3.77H77.13V25.13H50.75V91.71H26.38Z"/><path class="cls-2" d="M82,23.74H105.9V37.44c3.89-9.3,10.18-15.33,21.48-14.82V47.74h-2c-12.44,0-19.47,7.16-19.47,22.86v21.1H82Z"/><path class="cls-3" d="M135.79,0h24.87V17.59H135.79Zm.5,23.74h23.87v68H136.3Z"/><path class="cls-4" d="M168.33,23.74h25.13l13.06,39.7,13.07-39.7h24.75L217.2,92.21H195.46Z"/><path class="cls-5" d="M252,0h24.88V17.59H252Zm.5,23.74h23.87v68H252.49Z"/><path class="cls-6" d="M286.28,72.23V72c0-14.07,10.68-21.36,26.63-21.36a52.11,52.11,0,0,1,16.33,2.64V52.13c0-7-4.4-11.05-13.57-11.05A47.88,47.88,0,0,0,297,44.85L292.06,28a68.27,68.27,0,0,1,27.51-5.28c12.19,0,20.48,2.89,25.88,8.29,5.15,5,7.29,12.06,7.29,21.61V91.71H329.12v-7c-4.65,5.15-11.05,8.54-20,8.54C296.21,93.21,286.28,85.8,286.28,72.23Zm43.21-5.15V63.94a25,25,0,0,0-9.3-1.76c-6.91,0-10.93,3.39-10.93,8.42v.25c0,4.65,3.52,7.41,8.42,7.41C324.6,78.26,329.5,73.87,329.5,67.08Z"/><path class="cls-7" d="M26.38,150.13H0V128.77H77.13v21.36H50.75v66.58H26.38Z"/><path class="cls-8" d="M85.8,125h24.87v17.59H85.8Zm.5,23.74h23.87v68H86.3Z"/><path class="cls-9" d="M123.48,148.74h23.87V158c4.4-5.65,10.68-10.8,20.23-10.8,9,0,16,4,19.6,11.06,5.91-6.78,12.81-11.06,22.74-11.06,14.45,0,23.24,9,23.24,24.87v44.6H209.29V179.77c0-7.41-3.64-11.31-9.3-11.31s-9.8,3.89-9.8,11.31v36.93H166.32V179.77c0-7.41-3.64-11.31-9.29-11.31s-9.67,3.89-9.67,11.31v36.93H123.48Z"/><path class="cls-10" d="M242.7,183v-.25c0-19.85,14.2-35.55,34.29-35.55,23.49,0,34.29,17.21,34.29,37.19,0,1.51,0,3.27-.12,4.9H265.68c1.88,7.41,7.29,11.18,14.7,11.18,5.65,0,10.18-2.14,15.07-6.91l13.19,10.93c-6.53,8.29-16,13.82-29.52,13.82C257.77,218.34,242.7,204.14,242.7,183Zm46.23-5.9c-.88-7.54-5.28-12.31-11.81-12.31-6.28,0-10.55,4.9-11.81,12.31Z"/><path class="cls-11" d="M321.84,139.45V128.77H349v10.68l-7.29,48.62H329.12Zm1.13,55.9h24.88v21.36H323Z"/></g></g></svg>